<svg width="19" height="19" viewBox="0 0 19 19" fill="none" xmlns="http://www.w3.org/2000/svg">
<path d="M3.2538 19H15.7461C17.5403 19 19 17.541 19 15.7477V4.59762C19 2.80429 17.5403 1.34528 15.7461 1.34528H14.4263V0.873348C14.4263 0.390037 14.0361 0 13.5526 0C13.069 0 12.6788 0.390037 12.6788 0.873348V1.34528H6.27116V0.873348C6.27116 0.390037 5.88093 0 5.39739 0C4.91385 0 4.52362 0.390037 4.52362 0.873348V1.34528H3.25392C1.45972 1.34528 0 2.80426 0 4.59762V15.7477C0 17.5421 1.45957 19 3.2538 19ZM15.7481 17.2533H3.2538C2.42325 17.2533 1.74745 16.5778 1.74745 15.7477V7.77489H17.251V15.7454C17.2544 16.5778 16.5787 17.2533 15.7481 17.2533ZM3.2538 3.09314H4.5235V3.71289C4.5235 4.1962 4.91373 4.58624 5.39727 4.58624C5.88082 4.58624 6.27104 4.1962 6.27104 3.71289V3.09314H12.6787V3.71289C12.6787 4.1962 13.0689 4.58624 13.5525 4.58624C14.036 4.58624 14.4262 4.1962 14.4262 3.71289V3.09314H15.746C16.5765 3.09314 17.2523 3.76861 17.2523 4.59876V6.0316L1.74757 6.03046V4.59762C1.74757 3.76861 2.42325 3.09314 3.2538 3.09314Z" fill="#FBB040"/>
</svg>
