<svg width="340" height="302" viewBox="0 0 340 302" fill="none" xmlns="http://www.w3.org/2000/svg">
    <g filter="url(#filter0_b_83_7490)">
        <mask id="path-1-inside-1_83_7490" fill="white">
            <path fill-rule="evenodd" clip-rule="evenodd"
                d="M0 12C0 5.37258 5.37258 0 12 0H328C334.627 0 340 5.37258 340 12V175.55C340 179.16 337.461
            182.184 334.46 184.189C329.359 187.596 326 193.406 326 200C326 206.594 329.359 212.404
            334.46 215.811C337.461 217.816 340 220.84 340 224.45V290C340 296.627 334.627 302 328
            302H12C5.37258 302 0 296.627 0 290V224.45C0 220.84 2.5387 217.816 5.54015
            215.811C10.6407 212.404 14 206.594 14 200C14 193.406 10.6407 187.596 5.54015
            184.189C2.5387 182.184 0 179.16 0 175.55V12Z" />
        </mask>
        <path fill-rule="evenodd" clip-rule="evenodd"
            d="M0 12C0 5.37258 5.37258 0 12 0H328C334.627 0 340 5.37258 340 12V175.55C340 179.16 337.461
        182.184 334.46 184.189C329.359 187.596 326 193.406 326 200C326 206.594 329.359 212.404
        334.46 215.811C337.461 217.816 340 220.84 340 224.45V290C340 296.627 334.627 302 328
        302H12C5.37258 302 0 296.627 0 290V224.45C0 220.84 2.5387 217.816 5.54015 215.811C10.6407
        212.404 14 206.594 14 200C14 193.406 10.6407 187.596 5.54015 184.189C2.5387 182.184 0 179.16
        0 175.55V12Z"
            fill="white" fill-opacity="0.08" />
        <path
            d="M5.54015 184.189L5.67901 183.981L5.54015 184.189ZM5.54015 215.811L5.67901 216.019L5.54015
        215.811ZM334.46 215.811L334.599 215.603L334.46 215.811ZM334.46 184.189L334.599
        184.397L334.46 184.189ZM12 -0.25C10.3395 -0.25 8.7555 0.0805346 7.31078 0.679634L7.50231
        1.1415C8.88738 0.567132 10.4063 0.25 12 0.25V-0.25ZM0.679635 7.31078C0.0805349 8.75549 -0.25
        10.3395 -0.25 12H0.25C0.25 10.4063 0.567133 8.88737 1.1415 7.50231L0.679635 7.31078ZM-0.25
        12V16.0888H0.25V12H-0.25ZM-0.25 24.2663V32.4438H0.25V24.2663H-0.25ZM-0.25
        40.6213V48.7988H0.25V40.6213H-0.25ZM-0.25 56.9764V65.1539H0.25V56.9764H-0.25ZM-0.25
        73.3314V81.5089H0.25V73.3314H-0.25ZM-0.25 89.6864V97.864H0.25V89.6864H-0.25ZM-0.25
        106.041V114.219H0.25V106.041H-0.25ZM-0.25 122.397V130.574H0.25V122.397H-0.25ZM-0.25
        138.752V146.929H0.25V138.752H-0.25ZM-0.25 155.107V163.284H0.25V155.107H-0.25ZM-0.25
        171.462V175.55H0.25V171.462H-0.25ZM-0.25 175.55C-0.25 176.494 -0.0820936 177.397 0.217879
        178.253L0.689735 178.088C0.407038 177.281 0.25 176.433 0.25 175.55H-0.25ZM3.27446
        182.718C3.93529 183.337 4.65466 183.898 5.40128 184.397L5.67901 183.981C4.95291 183.496
        4.25525 182.951 3.61607 182.353L3.27446 182.718ZM5.40128 184.397C6.68187 185.252 7.85129
        186.261 8.8832 187.397L9.25332 187.061C8.19408 185.895 6.99366 184.859 5.67901
        183.981L5.40128 184.397ZM13.1911 195.438C13.5561 196.898 13.75 198.426 13.75 200H14.25C14.25
        198.385 14.051 196.816 13.6762 195.316L13.1911 195.438ZM13.75 200C13.75 201.574 13.5561
        203.102 13.1911 204.562L13.6762 204.684C14.051 203.184 14.25 201.615 14.25 200H13.75ZM8.8832
        212.603C7.85129 213.739 6.68187 214.748 5.40128 215.603L5.67901 216.019C6.99366 215.141
        8.19408 214.105 9.25332 212.939L8.8832 212.603ZM5.40128 215.603C4.65466 216.102 3.93529
        216.663 3.27446 217.282L3.61607 217.647C4.25525 217.049 4.95291 216.504 5.67901
        216.019L5.40128 215.603ZM0.217879 221.747C-0.0820936 222.603 -0.25 223.506 -0.25
        224.45H0.25C0.25 223.567 0.407038 222.719 0.689735 221.912L0.217879 221.747ZM-0.25
        224.45V228.546H0.25V224.45H-0.25ZM-0.25 236.74V244.934H0.25V236.74H-0.25ZM-0.25
        253.128V261.322H0.25V253.128H-0.25ZM-0.25 269.515V277.709H0.25V269.515H-0.25ZM-0.25
        285.903V290H0.25V285.903H-0.25ZM-0.25 290C-0.25 291.661 0.0805352 293.245 0.679636
        294.689L1.1415 294.498C0.567133 293.113 0.25 291.594 0.25 290H-0.25ZM7.31078 301.32C8.7555
        301.919 10.3395 302.25 12 302.25V301.75C10.4063 301.75 8.88738 301.433 7.50231
        300.858L7.31078 301.32ZM12 302.25H15.95V301.75H12V302.25ZM23.85
        302.25H31.75V301.75H23.85V302.25ZM39.65 302.25H47.55V301.75H39.65V302.25ZM55.45
        302.25H63.35V301.75H55.45V302.25ZM71.25 302.25H79.15V301.75H71.25V302.25ZM87.05
        302.25H94.95V301.75H87.05V302.25ZM102.85 302.25H110.75V301.75H102.85V302.25ZM118.65
        302.25H126.55V301.75H118.65V302.25ZM134.45 302.25H142.35V301.75H134.45V302.25ZM150.25
        302.25H158.15V301.75H150.25V302.25ZM166.05 302.25H173.95V301.75H166.05V302.25ZM181.85
        302.25H189.75V301.75H181.85V302.25ZM197.65 302.25H205.55V301.75H197.65V302.25ZM213.45
        302.25H221.35V301.75H213.45V302.25ZM229.25 302.25H237.15V301.75H229.25V302.25ZM245.05
        302.25H252.95V301.75H245.05V302.25ZM260.85 302.25H268.75V301.75H260.85V302.25ZM276.65
        302.25H284.55V301.75H276.65V302.25ZM292.45 302.25H300.35V301.75H292.45V302.25ZM308.25
        302.25H316.15V301.75H308.25V302.25ZM324.05 302.25H328V301.75H324.05V302.25ZM328
        302.25C329.661 302.25 331.245 301.919 332.689 301.32L332.498 300.858C331.113 301.433 329.594
        301.75 328 301.75V302.25ZM339.32 294.689C339.919 293.245 340.25 291.661 340.25
        290H339.75C339.75 291.594 339.433 293.113 338.858 294.498L339.32 294.689ZM340.25
        290V285.903H339.75V290H340.25ZM340.25 277.709V269.515H339.75V277.709H340.25ZM340.25
        261.322V253.128H339.75V261.322H340.25ZM340.25 244.934V236.74H339.75V244.934H340.25ZM340.25
        228.546V224.45H339.75V228.546H340.25ZM340.25 224.45C340.25 223.506 340.082 222.603 339.782
        221.747L339.31 221.912C339.593 222.719 339.75 223.567 339.75 224.45H340.25ZM336.726
        217.282C336.065 216.663 335.345 216.102 334.599 215.603L334.321 216.019C335.047 216.504
        335.745 217.049 336.384 217.647L336.726 217.282ZM334.599 215.603C333.318 214.748 332.149
        213.739 331.117 212.603L330.747 212.939C331.806 214.105 333.006 215.141 334.321
        216.019L334.599 215.603ZM326.809 204.562C326.444 203.102 326.25 201.574 326.25
        200H325.75C325.75 201.615 325.949 203.184 326.324 204.684L326.809 204.562ZM326.25 200C326.25
        198.426 326.444 196.898 326.809 195.438L326.324 195.316C325.949 196.816 325.75 198.385
        325.75 200H326.25ZM331.117 187.397C332.149 186.261 333.318 185.252 334.599 184.397L334.321
        183.981C333.006 184.859 331.806 185.895 330.747 187.061L331.117 187.397ZM334.599
        184.397C335.345 183.898 336.065 183.337 336.726 182.718L336.384 182.353C335.745 182.951
        335.047 183.496 334.321 183.981L334.599 184.397ZM339.782 178.253C340.082 177.397 340.25
        176.494 340.25 175.55H339.75C339.75 176.433 339.593 177.281 339.31 178.088L339.782
        178.253ZM340.25 175.55V171.462H339.75V175.55H340.25ZM340.25
        163.284V155.107H339.75V163.284H340.25ZM340.25 146.929V138.752H339.75V146.929H340.25ZM340.25
        130.574V122.397H339.75V130.574H340.25ZM340.25 114.219V106.042H339.75V114.219H340.25ZM340.25
        97.864V89.6865H339.75V97.864H340.25ZM340.25 81.5089V73.3314H339.75V81.5089H340.25ZM340.25
        65.1539V56.9764H339.75V65.1539H340.25ZM340.25 48.7989V40.6213H339.75V48.7989H340.25ZM340.25
        32.4438V24.2663H339.75V32.4438H340.25ZM340.25 16.0888V12H339.75V16.0888H340.25ZM340.25
        12C340.25 10.3395 339.919 8.7555 339.32 7.31078L338.858 7.50231C339.433 8.88738 339.75
        10.4063 339.75 12H340.25ZM332.689 0.679636C331.245 0.0805355 329.661 -0.25 328
        -0.25V0.25C329.594 0.25 331.113 0.567133 332.498 1.1415L332.689 0.679636ZM328
        -0.25H324.05V0.25H328V-0.25ZM316.15 -0.25H308.25V0.25H316.15V-0.25ZM300.35
        -0.25H292.45V0.25H300.35V-0.25ZM284.55 -0.25H276.65V0.25H284.55V-0.25ZM268.75
        -0.25H260.85V0.25H268.75V-0.25ZM252.95 -0.25H245.05V0.25H252.95V-0.25ZM237.15
        -0.25H229.25V0.25H237.15V-0.25ZM221.35 -0.25H213.45V0.25H221.35V-0.25ZM205.55
        -0.25H197.65V0.25H205.55V-0.25ZM189.75 -0.25H181.85V0.25H189.75V-0.25ZM173.95
        -0.25H166.05V0.25H173.95V-0.25ZM158.15 -0.25H150.25V0.25H158.15V-0.25ZM142.35
        -0.25H134.45V0.25H142.35V-0.25ZM126.55 -0.25H118.65V0.25H126.55V-0.25ZM110.75
        -0.25H102.85V0.25H110.75V-0.25ZM94.9501 -0.25H87.0501V0.25H94.9501V-0.25ZM79.1501
        -0.25H71.2501V0.25H79.1501V-0.25ZM63.3501 -0.25H55.4501V0.25H63.3501V-0.25ZM47.5501
        -0.25H39.6501V0.25H47.5501V-0.25ZM31.7501 -0.25H23.8501V0.25H31.7501V-0.25ZM15.9501
        -0.25H12V0.25H15.9501V-0.25ZM5.54015 184.189L5.81787 183.773L5.54015 184.189ZM5.54015
        215.811L5.81787 216.227L5.54015 215.811ZM334.46 215.811L334.738 215.395L334.46
        215.811ZM334.46 184.189L334.738 184.605L334.46 184.189ZM12 -0.5C10.306 -0.5 8.68956
        -0.162764 7.21502 0.448702L7.59807 1.37243C8.95332 0.810431 10.4398 0.5 12
        0.5V-0.5ZM0.448703 7.21501C-0.162764 8.68955 -0.5 10.306 -0.5 12H0.5C0.5 10.4398 0.810432
        8.95331 1.37243 7.59807L0.448703 7.21501ZM-0.5 12V16.0888H0.5V12H-0.5ZM-0.5
        24.2663V32.4438H0.5V24.2663H-0.5ZM-0.5 40.6213V48.7988H0.5V40.6213H-0.5ZM-0.5
        56.9764V65.1539H0.5V56.9764H-0.5ZM-0.5 73.3314V81.5089H0.5V73.3314H-0.5ZM-0.5
        89.6864V97.864H0.5V89.6864H-0.5ZM-0.5 106.041V114.219H0.5V106.041H-0.5ZM-0.5
        122.397V130.574H0.5V122.397H-0.5ZM-0.5 138.752V146.929H0.5V138.752H-0.5ZM-0.5
        155.107V163.284H0.5V155.107H-0.5ZM-0.5 171.462V175.55H0.5V171.462H-0.5ZM-0.5 175.55C-0.5
        176.524 -0.326659 177.455 -0.018049 178.336L0.925662 178.005C0.651604 177.223 0.5 176.403
        0.5 175.55H-0.5ZM3.10365 182.901C3.77531 183.529 4.50553 184.099 5.26242 184.605L5.81787
        183.773C5.10203 183.295 4.41523 182.759 3.78688 182.171L3.10365 182.901ZM5.26242
        184.605C6.52598 185.449 7.6799 186.444 8.69815 187.566L9.43838 186.893C8.36547 185.712
        7.14955 184.663 5.81787 183.773L5.26242 184.605ZM12.9486 195.498C13.3087 196.939 13.5
        198.447 13.5 200H14.5C14.5 198.364 14.2985 196.775 13.9187 195.256L12.9486 195.498ZM13.5
        200C13.5 201.553 13.3087 203.061 12.9486 204.502L13.9187 204.744C14.2985 203.225 14.5
        201.636 14.5 200H13.5ZM8.69814 212.434C7.6799 213.556 6.52598 214.551 5.26242
        215.395L5.81787 216.227C7.14955 215.337 8.36547 214.288 9.43838 213.107L8.69814
        212.434ZM5.26242 215.395C4.50553 215.901 3.77531 216.471 3.10365 217.099L3.78688
        217.829C4.41523 217.241 5.10203 216.705 5.81787 216.227L5.26242 215.395ZM-0.0180489
        221.664C-0.326659 222.545 -0.5 223.476 -0.5 224.45H0.5C0.5 223.597 0.651604 222.777 0.925662
        221.995L-0.0180489 221.664ZM-0.5 224.45V228.546H0.5V224.45H-0.5ZM-0.5
        236.74V244.934H0.5V236.74H-0.5ZM-0.5 253.128V261.322H0.5V253.128H-0.5ZM-0.5
        269.515V277.709H0.5V269.515H-0.5ZM-0.5 285.903V290H0.5V285.903H-0.5ZM-0.5 290C-0.5 291.694
        -0.162764 293.31 0.448704 294.785L1.37243 294.402C0.810432 293.047 0.5 291.56 0.5
        290H-0.5ZM7.21502 301.551C8.68956 302.163 10.306 302.5 12 302.5V301.5C10.4398 301.5 8.95332
        301.19 7.59807 300.628L7.21502 301.551ZM12 302.5H15.95V301.5H12V302.5ZM23.85
        302.5H31.75V301.5H23.85V302.5ZM39.65 302.5H47.55V301.5H39.65V302.5ZM55.45
        302.5H63.35V301.5H55.45V302.5ZM71.25 302.5H79.15V301.5H71.25V302.5ZM87.05
        302.5H94.95V301.5H87.05V302.5ZM102.85 302.5H110.75V301.5H102.85V302.5ZM118.65
        302.5H126.55V301.5H118.65V302.5ZM134.45 302.5H142.35V301.5H134.45V302.5ZM150.25
        302.5H158.15V301.5H150.25V302.5ZM166.05 302.5H173.95V301.5H166.05V302.5ZM181.85
        302.5H189.75V301.5H181.85V302.5ZM197.65 302.5H205.55V301.5H197.65V302.5ZM213.45
        302.5H221.35V301.5H213.45V302.5ZM229.25 302.5H237.15V301.5H229.25V302.5ZM245.05
        302.5H252.95V301.5H245.05V302.5ZM260.85 302.5H268.75V301.5H260.85V302.5ZM276.65
        302.5H284.55V301.5H276.65V302.5ZM292.45 302.5H300.35V301.5H292.45V302.5ZM308.25
        302.5H316.15V301.5H308.25V302.5ZM324.05 302.5H328V301.5H324.05V302.5ZM328 302.5C329.694
        302.5 331.31 302.163 332.785 301.551L332.402 300.628C331.047 301.19 329.56 301.5 328
        301.5V302.5ZM339.551 294.785C340.163 293.31 340.5 291.694 340.5 290H339.5C339.5 291.56
        339.19 293.047 338.628 294.402L339.551 294.785ZM340.5 290V285.903H339.5V290H340.5ZM340.5
        277.709V269.515H339.5V277.709H340.5ZM340.5 261.322V253.128H339.5V261.322H340.5ZM340.5
        244.934V236.74H339.5V244.934H340.5ZM340.5 228.546V224.45H339.5V228.546H340.5ZM340.5
        224.45C340.5 223.476 340.327 222.545 340.018 221.664L339.074 221.995C339.348 222.777 339.5
        223.597 339.5 224.45H340.5ZM336.896 217.099C336.225 216.471 335.494 215.901 334.738
        215.395L334.182 216.227C334.898 216.705 335.585 217.241 336.213 217.829L336.896
        217.099ZM334.738 215.395C333.474 214.551 332.32 213.556 331.302 212.434L330.562
        213.107C331.635 214.288 332.85 215.337 334.182 216.227L334.738 215.395ZM327.051
        204.502C326.691 203.061 326.5 201.553 326.5 200H325.5C325.5 201.636 325.702 203.225 326.081
        204.744L327.051 204.502ZM326.5 200C326.5 198.447 326.691 196.939 327.051 195.498L326.081
        195.256C325.702 196.775 325.5 198.364 325.5 200H326.5ZM331.302 187.566C332.32 186.444
        333.474 185.449 334.738 184.605L334.182 183.773C332.85 184.663 331.635 185.712 330.562
        186.893L331.302 187.566ZM334.738 184.605C335.494 184.099 336.225 183.529 336.896
        182.901L336.213 182.171C335.585 182.759 334.898 183.295 334.182 183.773L334.738
        184.605ZM340.018 178.336C340.327 177.455 340.5 176.524 340.5 175.55H339.5C339.5 176.403
        339.348 177.223 339.074 178.005L340.018 178.336ZM340.5
        175.55V171.462H339.5V175.55H340.5ZM340.5 163.284V155.107H339.5V163.284H340.5ZM340.5
        146.929V138.752H339.5V146.929H340.5ZM340.5 130.574V122.397H339.5V130.574H340.5ZM340.5
        114.219V106.042H339.5V114.219H340.5ZM340.5 97.864V89.6865H339.5V97.864H340.5ZM340.5
        81.5089V73.3314H339.5V81.5089H340.5ZM340.5 65.1539V56.9764H339.5V65.1539H340.5ZM340.5
        48.7989V40.6213H339.5V48.7989H340.5ZM340.5 32.4438V24.2663H339.5V32.4438H340.5ZM340.5
        16.0888V12H339.5V16.0888H340.5ZM340.5 12C340.5 10.306 340.163 8.68956 339.551
        7.21502L338.628 7.59807C339.19 8.95332 339.5 10.4398 339.5 12H340.5ZM332.785 0.448705C331.31
        -0.162763 329.694 -0.5 328 -0.5V0.5C329.56 0.5 331.047 0.810432 332.402 1.37243L332.785
        0.448705ZM328 -0.5H324.05V0.5H328V-0.5ZM316.15 -0.5H308.25V0.5H316.15V-0.5ZM300.35
        -0.5H292.45V0.5H300.35V-0.5ZM284.55 -0.5H276.65V0.5H284.55V-0.5ZM268.75
        -0.5H260.85V0.5H268.75V-0.5ZM252.95 -0.5H245.05V0.5H252.95V-0.5ZM237.15
        -0.5H229.25V0.5H237.15V-0.5ZM221.35 -0.5H213.45V0.5H221.35V-0.5ZM205.55
        -0.5H197.65V0.5H205.55V-0.5ZM189.75 -0.5H181.85V0.5H189.75V-0.5ZM173.95
        -0.5H166.05V0.5H173.95V-0.5ZM158.15 -0.5H150.25V0.5H158.15V-0.5ZM142.35
        -0.5H134.45V0.5H142.35V-0.5ZM126.55 -0.5H118.65V0.5H126.55V-0.5ZM110.75
        -0.5H102.85V0.5H110.75V-0.5ZM94.9501 -0.5H87.0501V0.5H94.9501V-0.5ZM79.1501
        -0.5H71.2501V0.5H79.1501V-0.5ZM63.3501 -0.5H55.4501V0.5H63.3501V-0.5ZM47.5501
        -0.5H39.6501V0.5H47.5501V-0.5ZM31.7501 -0.5H23.8501V0.5H31.7501V-0.5ZM15.9501
        -0.5H12V0.5H15.9501V-0.5Z"
            fill="#4E4D60" mask="url(#path-1-inside-1_83_7490)" />
    </g>
    <defs>
        <filter id="filter0_b_83_7490" x="-4" y="-4" width="348" height="310"
            filterUnits="userSpaceOnUse" color-interpolation-filters="sRGB">
            <feFlood flood-opacity="0" result="BackgroundImageFix" />
            <feGaussianBlur in="BackgroundImageFix" stdDeviation="2" />
            <feComposite in2="SourceAlpha" operator="in" result="effect1_backgroundBlur_83_7490" />
            <feBlend mode="normal" in="SourceGraphic" in2="effect1_backgroundBlur_83_7490"
                result="shape" />
        </filter>
    </defs>
</svg>