<svg width="22" height="18" viewBox="0 0 22 18" fill="none" xmlns="http://www.w3.org/2000/svg">
<path d="M11.1659 17.4314C9.05744 17.4314 6.951 17.3017 4.8578 17.0433C3.74734 16.8984 2.72011 16.3783 1.9458 15.5706C1.17053 14.7618 0.695861 13.7141 0.597457 12.5982C0.497978 11.4078 0.448242 10.1978 0.448242 8.99978C0.448242 7.80173 0.503387 6.62207 0.602863 5.44892C0.694771 4.34385 1.15863 3.30367 1.91985 2.49928C2.68106 1.69372 3.69423 1.17255 4.79171 1.02008C6.92289 0.721659 9.0725 0.570274 11.2241 0.568115C13.3672 0.571359 15.5082 0.72598 17.6297 1.03091C18.7088 1.18553 19.7046 1.69588 20.4614 2.4809C21.2172 3.26589 21.6897 4.28121 21.8033 5.36576C21.9319 6.57247 21.9968 7.78565 22 8.99994C22.0022 10.2283 21.9395 11.4566 21.8119 12.6784C21.6995 13.7792 21.2172 14.8085 20.443 15.599C19.6688 16.3883 18.6492 16.8922 17.5518 17.0274C15.453 17.2912 13.3402 17.4253 11.2243 17.4317L11.1659 17.4314ZM11.1659 1.95192C9.09851 1.953 7.03321 2.09789 4.9854 2.38659C3.36349 2.61366 2.11687 3.93498 1.98483 5.56764C1.88536 6.70298 1.83562 7.85992 1.83237 8.99947C1.82913 10.1402 1.87995 11.3242 1.97618 12.4759C2.11891 14.1281 3.39373 15.4571 5.03738 15.6677C7.07126 15.9197 9.11804 16.0462 11.1661 16.0472H11.2245C13.2822 16.044 15.3387 15.9142 17.3801 15.6591C18.9999 15.4547 20.2628 14.1583 20.425 12.5342C20.5515 11.36 20.6153 10.1803 20.6164 8.99942C20.6131 7.8349 20.5504 6.67035 20.4282 5.51111C20.2606 3.91085 19.0269 2.62846 17.4332 2.40037C15.3766 2.10627 13.3016 1.95596 11.2244 1.95164L11.1659 1.95192Z" fill="#FBB040"/>
<path d="M21.2195 7.28041H1.21472C0.833032 7.28041 0.522705 6.97116 0.522705 6.58839C0.522705 6.2067 0.833032 5.89638 1.21472 5.89638H21.2195C21.6022 5.89638 21.9115 6.2067 21.9115 6.58839C21.9115 6.97116 21.6022 7.28041 21.2195 7.28041Z" fill="#FBB040"/>
<path d="M7.01922 10.121H3.80578C3.4241 10.121 3.11377 9.81068 3.11377 9.42899C3.11377 9.04623 3.4241 8.73698 3.80578 8.73698H7.01922C7.40198 8.73698 7.71123 9.04623 7.71123 9.42899C7.71123 9.81068 7.40198 10.121 7.01922 10.121Z" fill="#FBB040"/>
<path d="M7.01922 12.1635H3.80578C3.4241 12.1635 3.11377 11.8543 3.11377 11.4715C3.11377 11.0898 3.4241 10.7795 3.80578 10.7795H7.01922C7.40198 10.7795 7.71123 11.0898 7.71123 11.4715C7.71123 11.8543 7.40198 12.1635 7.01922 12.1635Z" fill="#FBB040"/>
<path d="M17.7766 14.0231H16.4834C15.6238 14.0231 14.9275 13.3268 14.9275 12.4683V10.2927C14.9275 9.87969 15.0918 9.48394 15.3838 9.19199C15.6746 8.90005 16.0704 8.73679 16.4834 8.73679H17.7734C18.633 8.73679 19.3304 9.43312 19.3315 10.2927V12.4683C19.3304 13.3268 18.6352 14.0221 17.7766 14.0231ZM16.4834 10.1207C16.3883 10.1207 16.3115 10.1975 16.3115 10.2927V12.4682C16.3115 12.5622 16.3883 12.639 16.4834 12.639H17.7734C17.8686 12.639 17.9464 12.5633 17.9475 12.4682V10.2927C17.9464 10.1964 17.8686 10.1207 17.7734 10.1207H16.4834Z" fill="#FBB040"/>
</svg>
