<svg width="24" height="24" viewBox="0 0 24 24" fill="none" xmlns="http://www.w3.org/2000/svg">
<path d="M11.6027 21.1062V23.4706C11.6027 23.7532 11.8547 24 12.1432 24C19.9273 23.8938 24.0711 17.3644 23.9991 11.2941C23.9625 5.68306 20.2872 0 12.1796 0H12.143C3.78355 0.0358447 0 5.36435 0 10.3415C0 15.5654 3.96392 20.8235 11.6027 21.1062ZM16.9725 9.59958C17.513 9.59958 17.9451 10.0228 17.9451 10.5522C17.9451 11.0816 17.513 11.5049 16.9725 11.5049C16.432 11.5049 15.9999 11.0816 15.9999 10.5522C15.9999 10.0228 16.432 9.59958 16.9725 9.59958ZM11.9995 9.59958C12.54 9.59958 12.9721 10.0228 12.9721 10.5522C12.9721 11.0816 12.54 11.5049 11.9995 11.5049C11.459 11.5049 11.0268 11.0816 11.0268 10.5522C11.0268 10.0228 11.459 9.59958 11.9995 9.59958ZM7.02643 9.59958C7.56694 9.59958 7.99906 10.0228 7.99906 10.5522C7.99906 11.0816 7.56694 11.5049 7.02643 11.5049C6.48593 11.5049 6.05381 11.0816 6.05381 10.5522C6.05381 10.0228 6.48593 9.59958 7.02643 9.59958Z" fill="white"/>
</svg>
