<svg width="42" height="42" viewBox="0 0 42 42" fill="none" xmlns="http://www.w3.org/2000/svg">
<g filter="url(#filter0_b_104_8333)">
<rect x="1" y="1" width="40" height="40" rx="20" fill="white" fill-opacity="0.05"/>
<rect x="0.5" y="0.5" width="41" height="41" rx="20.5" stroke="#FBB040"/>
</g>
<path d="M15.1139 20.9234L15.1139 20.9233C15.3467 20.6905 15.6627 20.5596 15.9916 20.5596H26.0102C26.3391 20.5596 26.6551 20.6906 26.8879 20.9234L26.994 20.8173L26.8879 20.9234C27.1207 21.1561 27.2517 21.4721 27.2517 21.8011V27.3669C27.2517 27.6959 27.1207 28.0119 26.8879 28.2446L26.994 28.3507L26.8879 28.2447C26.6551 28.4775 26.3391 28.6084 26.0102 28.6084H15.9916C15.6627 28.6084 15.3467 28.4774 15.1139 28.2446L15.0078 28.3507L15.1139 28.2446C14.8811 28.0119 14.7501 27.6959 14.7501 27.3669V21.8011C14.7501 21.4721 14.8811 21.1561 15.1139 20.9234ZM17.233 19.703H15.9915C15.4348 19.703 14.9013 19.924 14.5079 20.3174C14.1145 20.7108 13.8935 21.2443 13.8935 21.8011V27.3669C13.8935 27.9236 14.1145 28.4572 14.5079 28.8506C14.9013 29.244 15.4348 29.465 15.9915 29.465H26.0101C26.5668 29.465 27.1004 29.244 27.4938 28.8506C27.8872 28.4572 28.1082 27.9237 28.1082 27.3669V21.8011C28.1082 21.2444 27.8872 20.7108 27.4938 20.3174C27.1004 19.924 26.5669 19.703 26.0101 19.703H24.7687V16.7917C24.7687 14.7106 23.0818 13.0239 21.0009 13.0239C18.92 13.0239 17.2332 14.7107 17.2332 16.7916C17.2332 16.7916 17.2332 16.7917 17.2332 16.7917L17.233 19.703ZM23.9121 16.7917V19.703H23.6551V16.7917C23.6551 15.3258 22.4664 14.1371 21.0006 14.1371C19.5347 14.1371 18.346 15.3257 18.346 16.7917V19.703H18.0894V16.7917C18.0894 15.1838 19.3928 13.8803 21.0007 13.8803C22.6086 13.8803 23.9121 15.1839 23.9121 16.7917ZM22.7989 16.7917V19.703H19.2026V16.7917C19.2026 15.7988 20.0079 14.9935 21.0007 14.9935C21.9936 14.9935 22.7989 15.7989 22.7989 16.7917Z" fill="#FBB040" stroke="#FBB040" stroke-width="0.3"/>
<mask id="path-4-inside-1_104_8333" fill="white">
<path fill-rule="evenodd" clip-rule="evenodd" d="M21.0004 27.0885C21.4616 27.0885 21.8352 26.7148 21.8352 26.2536V24.5838C22.1734 24.3299 22.3918 23.9256 22.3918 23.4706C22.3918 22.7025 21.7685 22.0792 21.0004 22.0792C20.2323 22.0792 19.6089 22.7025 19.6089 23.4706C19.6089 23.9256 19.8274 24.3299 20.1655 24.5838V26.2536C20.1655 26.7148 20.5391 27.0885 21.0004 27.0885ZM21.0004 26.5319C21.1541 26.5319 21.2787 26.4073 21.2787 26.2536V24.4349C21.2787 24.3354 21.3315 24.2436 21.4178 24.1942C21.6669 24.0495 21.8353 23.7795 21.8353 23.4706C21.8353 23.01 21.4609 22.6357 21.0004 22.6357C20.5398 22.6357 20.1655 23.01 20.1655 23.4706C20.1655 23.7795 20.3339 24.0495 20.5829 24.1942C20.6692 24.2436 20.7221 24.3354 20.7221 24.4349V26.2536C20.7221 26.4073 20.8466 26.5319 21.0004 26.5319Z"/>
</mask>
<path fill-rule="evenodd" clip-rule="evenodd" d="M21.0004 27.0885C21.4616 27.0885 21.8352 26.7148 21.8352 26.2536V24.5838C22.1734 24.3299 22.3918 23.9256 22.3918 23.4706C22.3918 22.7025 21.7685 22.0792 21.0004 22.0792C20.2323 22.0792 19.6089 22.7025 19.6089 23.4706C19.6089 23.9256 19.8274 24.3299 20.1655 24.5838V26.2536C20.1655 26.7148 20.5391 27.0885 21.0004 27.0885ZM21.0004 26.5319C21.1541 26.5319 21.2787 26.4073 21.2787 26.2536V24.4349C21.2787 24.3354 21.3315 24.2436 21.4178 24.1942C21.6669 24.0495 21.8353 23.7795 21.8353 23.4706C21.8353 23.01 21.4609 22.6357 21.0004 22.6357C20.5398 22.6357 20.1655 23.01 20.1655 23.4706C20.1655 23.7795 20.3339 24.0495 20.5829 24.1942C20.6692 24.2436 20.7221 24.3354 20.7221 24.4349V26.2536C20.7221 26.4073 20.8466 26.5319 21.0004 26.5319Z" fill="#FBB040"/>
<path d="M21.8352 24.5838L21.2347 23.7842L20.8352 24.0842V24.5838H21.8352ZM20.1655 24.5838H21.1655V24.0842L20.766 23.7842L20.1655 24.5838ZM21.4178 24.1942L21.9148 25.062L21.9202 25.0588L21.4178 24.1942ZM20.5829 24.1942L20.0806 25.0589L20.0861 25.062L20.5829 24.1942ZM21.0004 28.0885C22.0139 28.0885 22.8352 27.2671 22.8352 26.2536H20.8352C20.8352 26.1626 20.9093 26.0885 21.0004 26.0885V28.0885ZM22.8352 26.2536V24.5838H20.8352V26.2536H22.8352ZM22.4358 25.3834C23.0147 24.9486 23.3918 24.2533 23.3918 23.4706H21.3918C21.3918 23.5979 21.3321 23.7111 21.2347 23.7842L22.4358 25.3834ZM23.3918 23.4706C23.3918 22.1503 22.3207 21.0792 21.0004 21.0792V23.0792C21.2162 23.0792 21.3918 23.2548 21.3918 23.4706H23.3918ZM21.0004 21.0792C19.68 21.0792 18.6089 22.1503 18.6089 23.4706H20.6089C20.6089 23.2548 20.7846 23.0792 21.0004 23.0792V21.0792ZM18.6089 23.4706C18.6089 24.2533 18.9861 24.9486 19.5649 25.3834L20.766 23.7842C20.6687 23.7111 20.6089 23.5979 20.6089 23.4706H18.6089ZM19.1655 24.5838V26.2536H21.1655V24.5838H19.1655ZM19.1655 26.2536C19.1655 27.2671 19.9868 28.0885 21.0004 28.0885V26.0885C21.0914 26.0885 21.1655 26.1626 21.1655 26.2536H19.1655ZM21.0004 27.5319C21.7064 27.5319 22.2787 26.9596 22.2787 26.2536H20.2787C20.2787 25.855 20.6018 25.5319 21.0004 25.5319V27.5319ZM22.2787 26.2536V24.4349H20.2787V26.2536H22.2787ZM22.2787 24.4349C22.2787 24.6913 22.1419 24.9319 21.9148 25.0619L20.9208 23.3264C20.5212 23.5553 20.2787 23.9795 20.2787 24.4349H22.2787ZM21.9202 25.0588C22.4631 24.7434 22.8353 24.1519 22.8353 23.4706H20.8353C20.8353 23.4071 20.8706 23.3556 20.9154 23.3295L21.9202 25.0588ZM22.8353 23.4706C22.8353 22.4578 22.0132 21.6357 21.0004 21.6357V23.6357C20.9087 23.6357 20.8353 23.5623 20.8353 23.4706H22.8353ZM21.0004 21.6357C19.9875 21.6357 19.1655 22.4578 19.1655 23.4706H21.1655C21.1655 23.5623 21.0921 23.6357 21.0004 23.6357V21.6357ZM19.1655 23.4706C19.1655 24.1519 19.5376 24.7434 20.0806 25.0588L21.0853 23.3295C21.1301 23.3556 21.1655 23.4072 21.1655 23.4706H19.1655ZM20.0861 25.062C19.8588 24.9319 19.7221 24.6912 19.7221 24.4349H21.7221C21.7221 23.9796 21.4796 23.5553 21.0798 23.3264L20.0861 25.062ZM19.7221 24.4349V26.2536H21.7221V24.4349H19.7221ZM19.7221 26.2536C19.7221 26.9595 20.2942 27.5319 21.0004 27.5319V25.5319C21.399 25.5319 21.7221 25.8551 21.7221 26.2536H19.7221Z" fill="#FBB040" mask="url(#path-4-inside-1_104_8333)"/>
<defs>
<filter id="filter0_b_104_8333" x="-14" y="-14" width="70" height="70" filterUnits="userSpaceOnUse" color-interpolation-filters="sRGB">
<feFlood flood-opacity="0" result="BackgroundImageFix"/>
<feGaussianBlur in="BackgroundImageFix" stdDeviation="7"/>
<feComposite in2="SourceAlpha" operator="in" result="effect1_backgroundBlur_104_8333"/>
<feBlend mode="normal" in="SourceGraphic" in2="effect1_backgroundBlur_104_8333" result="shape"/>
</filter>
</defs>
</svg>
