<svg width="42" height="42" viewBox="0 0 42 42" fill="none" xmlns="http://www.w3.org/2000/svg">
<g filter="url(#filter0_b_238_774)">
<rect x="1" y="1" width="40" height="40" rx="20" fill="white" fill-opacity="0.05"/>
<rect x="0.5" y="0.5" width="41" height="41" rx="20.5" stroke="#F54EBC"/>
</g>
<path d="M25.3673 18.1165C25.0423 17.7916 24.556 17.694 24.1321 17.8708C23.7059 18.0446 23.4316 18.4583 23.4243 18.9256H18.9323C18.3074 18.9256 17.7983 19.4346 17.7983 20.0595V22.6737C17.7983 23.2987 18.3074 23.8077 18.9323 23.8077L23.4316 23.8151C23.4316 24.275 23.7059 24.6864 24.1321 24.8625C24.2729 24.9204 24.4211 24.949 24.5678 24.949C24.8626 24.949 25.1516 24.8346 25.3695 24.6168L27.8179 22.1684C28.2594 21.7253 28.2594 21.0058 27.8179 20.565L25.3673 18.1165ZM27.0198 21.3725L24.5583 23.8151C24.5583 23.1901 24.0493 22.6811 23.4243 22.6811L18.9251 22.6738L18.9324 20.0522H23.4243C24.0493 20.0522 24.5583 19.5432 24.5715 18.9124L27.0199 21.3608L27.4182 20.9625L27.0198 21.3725Z" fill="#F54EBC"/>
<path d="M24.891 14.0435H17.4666C15.5793 14.0435 14.0435 15.5794 14.0435 17.4666V25.2666C14.0435 27.1539 15.5794 28.6897 17.4666 28.6897H24.891C26.7783 28.6897 28.3141 27.1537 28.3141 25.2666V25.1221C28.3141 24.8103 28.0625 24.5587 27.7508 24.5587C27.439 24.5587 27.1875 24.8103 27.1875 25.1221V25.2666C27.1875 26.5326 26.1569 27.563 24.891 27.563H17.4666C16.2006 27.563 15.1701 26.5325 15.1701 25.2666V17.4666C15.1701 16.2006 16.2007 15.1701 17.4666 15.1701H24.891C26.157 15.1701 27.1875 16.2007 27.1875 17.4666V17.6111C27.1875 17.9228 27.439 18.1744 27.7508 18.1744C28.0625 18.1744 28.3141 17.9228 28.3141 17.6111V17.4666C28.3141 15.5793 26.7782 14.0435 24.891 14.0435Z" fill="#F54EBC"/>
<defs>
<filter id="filter0_b_238_774" x="-14" y="-14" width="70" height="70" filterUnits="userSpaceOnUse" color-interpolation-filters="sRGB">
<feFlood flood-opacity="0" result="BackgroundImageFix"/>
<feGaussianBlur in="BackgroundImageFix" stdDeviation="7"/>
<feComposite in2="SourceAlpha" operator="in" result="effect1_backgroundBlur_238_774"/>
<feBlend mode="normal" in="SourceGraphic" in2="effect1_backgroundBlur_238_774" result="shape"/>
</filter>
</defs>
</svg>
