<svg width="42" height="42" viewBox="0 0 42 42" fill="none" xmlns="http://www.w3.org/2000/svg">
<g filter="url(#filter0_b_238_804)">
<rect x="1" y="1" width="40" height="40" rx="20" fill="white" fill-opacity="0.05"/>
<rect x="0.5" y="0.5" width="41" height="41" rx="20.5" stroke="#F5EF4E"/>
</g>
<path d="M28.0987 24.2817L26.2088 22.3592C25.8355 21.9653 25.3845 21.7587 24.9065 21.7587C24.4316 21.7587 23.9774 21.9653 23.5931 22.3543L22.6084 23.3551C22.5592 23.3293 22.5116 23.3051 22.4671 23.2825C22.3512 23.2244 22.24 23.1663 22.1447 23.1049C21.1458 22.4609 20.2358 21.6166 19.3607 20.527C18.9748 20.0315 18.708 19.615 18.5142 19.205C18.7636 18.9677 18.9986 18.7256 19.2209 18.4931C19.3146 18.3963 19.4131 18.2962 19.5084 18.1994C19.9022 17.799 20.1103 17.3325 20.1103 16.8515C20.1103 16.3672 19.9022 15.9007 19.5084 15.5036L18.5698 14.5496C18.4634 14.4415 18.3618 14.3366 18.2569 14.2252L18.2522 14.2203C18.0473 14.0056 17.8265 13.778 17.6058 13.5698C17.231 13.1969 16.7831 13 16.3099 13C15.8398 13 15.3872 13.1985 15.0012 13.573L13.8181 14.7756C13.34 15.2567 13.0701 15.8442 13.0145 16.5222C12.9509 17.3293 13.0955 18.1816 13.4687 19.2002C14.0309 20.753 14.8774 22.1897 16.132 23.7215C17.6519 25.5682 19.4877 27.0291 21.5857 28.0638L21.5873 28.0654C22.3988 28.456 23.4851 28.9144 24.6873 28.9935H24.7016C24.7715 28.9968 24.843 29 24.9192 29C25.7816 29 26.4772 28.6965 27.0441 28.0718C27.0537 28.0605 27.0664 28.0476 27.0791 28.0299C27.2379 27.8378 27.4189 27.657 27.6127 27.4681L27.6571 27.4245C27.8382 27.2486 27.9811 27.1033 28.1082 26.9693C28.4877 26.5674 28.6879 26.1009 28.6863 25.6182C28.6863 25.134 28.483 24.6723 28.0987 24.2817ZM14.3247 16.6352C14.3565 16.2688 14.4914 15.9766 14.7471 15.7167L15.9176 14.527C16.0462 14.4011 16.1812 14.3333 16.3067 14.3333C16.4592 14.3333 16.5941 14.4399 16.6799 14.5287L16.6894 14.5383C16.8673 14.7062 17.0388 14.8838 17.2199 15.071L17.3025 15.1566C17.3565 15.2131 17.412 15.2696 17.4676 15.3277C17.5216 15.3826 17.5756 15.4391 17.6296 15.4956L18.5714 16.4528C18.6699 16.5529 18.7874 16.7046 18.7874 16.8563C18.7874 17.0081 18.6699 17.1598 18.5714 17.2599C18.5222 17.3099 18.4729 17.36 18.4237 17.4116C18.376 17.4617 18.3268 17.5117 18.2776 17.5617L18.2109 17.6295C17.9457 17.9023 17.6931 18.1606 17.4216 18.4076L17.3946 18.435C16.9832 18.8531 17.1246 19.2857 17.1706 19.4278C17.1738 19.4391 17.177 19.4471 17.1802 19.4568L17.1865 19.473C17.4438 20.0993 17.7964 20.6836 18.33 21.3664L18.3316 21.368C19.2924 22.5722 20.3056 23.5101 21.4316 24.2381C21.5555 24.3204 21.681 24.385 21.8033 24.4463C21.8255 24.4576 21.8493 24.4689 21.8715 24.4818L21.8731 24.4835C21.9891 24.5416 22.1002 24.5997 22.1955 24.661L22.2241 24.6772C22.2336 24.682 22.2432 24.6885 22.2527 24.6933C22.3925 24.7659 22.537 24.8031 22.6815 24.8031C22.9261 24.8031 23.1484 24.703 23.3422 24.5044L24.5206 23.3067C24.6127 23.2131 24.7524 23.1033 24.9049 23.1033C25.0605 23.1033 25.1955 23.226 25.2638 23.3002L25.267 23.3035L27.1696 25.2341C27.4427 25.5117 27.438 25.7571 27.1569 26.0541L27.1537 26.0573C27.0203 26.2026 26.879 26.3414 26.7456 26.4722L26.7074 26.5093C26.4946 26.7191 26.2755 26.9354 26.0706 27.184C25.7593 27.523 25.4052 27.6731 24.9224 27.6731C24.8779 27.6731 24.8271 27.6699 24.7763 27.6667C23.79 27.6021 22.861 27.2066 22.1606 26.8676C20.2326 25.9185 18.5444 24.5755 17.1452 22.8741C15.9907 21.4617 15.2156 20.1493 14.7027 18.7433C14.3993 17.9136 14.277 17.2421 14.3247 16.6352Z" fill="#F5EF4E"/>
<defs>
<filter id="filter0_b_238_804" x="-14" y="-14" width="70" height="70" filterUnits="userSpaceOnUse" color-interpolation-filters="sRGB">
<feFlood flood-opacity="0" result="BackgroundImageFix"/>
<feGaussianBlur in="BackgroundImageFix" stdDeviation="7"/>
<feComposite in2="SourceAlpha" operator="in" result="effect1_backgroundBlur_238_804"/>
<feBlend mode="normal" in="SourceGraphic" in2="effect1_backgroundBlur_238_804" result="shape"/>
</filter>
</defs>
</svg>
