<svg width="42" height="42" viewBox="0 0 42 42" fill="none" xmlns="http://www.w3.org/2000/svg">
<g filter="url(#filter0_b_104_8334)">
<rect x="1" y="1" width="40" height="40" rx="20" fill="white" fill-opacity="0.05"/>
<rect x="0.5" y="0.5" width="41" height="41" rx="20.5" stroke="#0FDEFA"/>
</g>
<path d="M20.5924 12.2043C19.4904 12.2043 18.4328 12.6423 17.6535 13.4217C16.8742 14.2011 16.4361 15.2587 16.4361 16.3606C16.4361 17.4626 16.8741 18.5202 17.6535 19.2995C18.4329 20.0788 19.4905 20.5169 20.5924 20.5169C21.6944 20.5169 22.752 20.0789 23.5313 19.2995C24.3106 18.5201 24.7487 17.4626 24.7487 16.3606C24.7487 15.2587 24.3107 14.201 23.5313 13.4217C22.7519 12.6424 21.6944 12.2043 20.5924 12.2043ZM20.5924 19.5063C19.7579 19.5063 18.9581 19.1745 18.3684 18.5848C17.7787 17.995 17.4469 17.1952 17.4469 16.3607C17.4469 15.5263 17.7786 14.7264 18.3684 14.1367C18.9581 13.547 19.758 13.2152 20.5924 13.2152C21.4268 13.2152 22.2267 13.547 22.8164 14.1367C23.4062 14.7265 23.7379 15.5263 23.7379 16.3607C23.7379 17.1952 23.4062 17.9951 22.8164 18.5848C22.2267 19.1745 21.4268 19.5063 20.5924 19.5063Z" fill="#0FDEFA" stroke="#0FDEFA" stroke-width="0.2"/>
<path d="M24.5019 28.5039L24.4816 28.4305H24.4055H16.13C15.9616 28.4305 15.8246 28.2935 15.8246 28.1251V24.4742C15.8246 23.1847 16.8698 22.1402 18.1586 22.1402H23.0263C23.9321 22.1439 24.754 22.6713 25.1347 23.4939L25.1616 23.5519H25.2255H26.069H26.2076L26.1639 23.4204C25.9444 22.7595 25.525 22.1832 24.9627 21.7724C24.4005 21.3615 23.7239 21.1365 23.0277 21.1287V21.1287H23.0265H18.1586C17.271 21.1287 16.4203 21.4815 15.7931 22.1087C15.166 22.7359 14.8131 23.5866 14.8131 24.4742V28.5305C14.8131 28.7725 14.9097 29.004 15.0805 29.1747C15.2512 29.3455 15.4827 29.4421 15.7247 29.4421H25.1928L25.2231 29.2468C25.052 29.1923 24.8957 29.0982 24.7689 28.9715C24.6424 28.8407 24.5506 28.68 24.5019 28.5039Z" fill="#0FDEFA" stroke="#0FDEFA" stroke-width="0.2"/>
<mask id="path-5-inside-1_104_8334" fill="white">
<path d="M25.1685 24.5305V28.1898C25.1685 28.4142 25.3502 28.5952 25.5739 28.5952C25.7982 28.5952 25.98 28.4142 25.98 28.1898V25.5938L30.4502 30.064C30.5262 30.1408 30.6297 30.1841 30.7384 30.1841C30.8464 30.1841 30.9499 30.1408 31.026 30.064C31.1028 29.9879 31.1461 29.8845 31.1461 29.7757C31.1461 29.6677 31.1028 29.5642 31.026 29.4882L26.5634 25.0256H29.1602C29.2674 25.0241 29.3693 24.98 29.4439 24.9039C29.5207 24.8286 29.5671 24.7275 29.5739 24.6202C29.5694 24.3974 29.3906 24.2186 29.1685 24.2141H25.4605C25.2985 24.2506 25.1723 24.3768 25.1357 24.5388L25.1685 24.5305Z"/>
</mask>
<path d="M25.1685 24.5305V28.1898C25.1685 28.4142 25.3502 28.5952 25.5739 28.5952C25.7982 28.5952 25.98 28.4142 25.98 28.1898V25.5938L30.4502 30.064C30.5262 30.1408 30.6297 30.1841 30.7384 30.1841C30.8464 30.1841 30.9499 30.1408 31.026 30.064C31.1028 29.9879 31.1461 29.8845 31.1461 29.7757C31.1461 29.6677 31.1028 29.5642 31.026 29.4882L26.5634 25.0256H29.1602C29.2674 25.0241 29.3693 24.98 29.4439 24.9039C29.5207 24.8286 29.5671 24.7275 29.5739 24.6202C29.5694 24.3974 29.3906 24.2186 29.1685 24.2141H25.4605C25.2985 24.2506 25.1723 24.3768 25.1357 24.5388L25.1685 24.5305Z" fill="#0FDEFA"/>
<path d="M25.1685 24.5305H26.1685V23.2423L24.9205 23.5617L25.1685 24.5305ZM25.98 25.5938L26.6871 24.8867L24.98 23.1796V25.5938H25.98ZM30.4502 30.064L31.1608 29.3604L31.1573 29.3569L30.4502 30.064ZM31.026 30.064L30.3223 29.3533L30.3154 29.3603L31.026 30.064ZM31.026 29.4882L30.3188 30.1953L30.3223 30.1987L31.026 29.4882ZM26.5634 25.0256V24.0256H24.1492L25.8563 25.7327L26.5634 25.0256ZM29.1602 25.0256V26.0256H29.1673L29.1744 26.0255L29.1602 25.0256ZM29.4439 24.9039L28.7439 24.1898L28.7367 24.1968L28.7297 24.204L29.4439 24.9039ZM29.5739 24.6202L30.5719 24.6839L30.5746 24.6419L30.5737 24.5997L29.5739 24.6202ZM29.1685 24.2141L29.189 23.2143L29.1788 23.2141H29.1685V24.2141ZM25.4605 24.2141V23.2141H25.3493L25.2407 23.2385L25.4605 24.2141ZM25.1357 24.5388L24.1602 24.319L23.8011 25.9126L25.3837 25.5076L25.1357 24.5388ZM24.1685 24.5305V28.1898H26.1685V24.5305H24.1685ZM24.1685 28.1898C24.1685 28.9677 24.7992 29.5952 25.5739 29.5952V27.5952C25.9013 27.5952 26.1685 27.8607 26.1685 28.1898H24.1685ZM25.5739 29.5952C26.3481 29.5952 26.98 28.9689 26.98 28.1898H24.98C24.98 27.8595 25.2484 27.5952 25.5739 27.5952V29.5952ZM26.98 28.1898V25.5938H24.98V28.1898H26.98ZM25.2729 26.3009L29.743 30.7711L31.1573 29.3569L26.6871 24.8867L25.2729 26.3009ZM29.7395 30.7675C30.0031 31.0338 30.3623 31.1841 30.7384 31.1841V29.1841C30.897 29.1841 31.0493 29.2478 31.1608 29.3604L29.7395 30.7675ZM30.7384 31.1841C31.1148 31.1841 31.4737 31.033 31.7365 30.7676L30.3154 29.3603C30.4261 29.2485 30.578 29.1841 30.7384 29.1841V31.1841ZM31.7295 30.7746C31.9958 30.511 32.1461 30.1518 32.1461 29.7757H30.1461C30.1461 29.6171 30.2098 29.4648 30.3224 29.3533L31.7295 30.7746ZM32.1461 29.7757C32.1461 29.3993 31.995 29.0404 31.7296 28.7776L30.3223 30.1987C30.2105 30.088 30.1461 29.9361 30.1461 29.7757H32.1461ZM31.7331 28.7811L27.2705 24.3185L25.8563 25.7327L30.3188 30.1953L31.7331 28.7811ZM26.5634 26.0256H29.1602V24.0256H26.5634V26.0256ZM29.1744 26.0255C29.5472 26.0202 29.9002 25.867 30.1581 25.6038L28.7297 24.204C28.8385 24.0929 28.9877 24.028 29.146 24.0257L29.1744 26.0255ZM30.1439 25.6181C30.3965 25.3704 30.5493 25.0378 30.5719 24.6839L28.576 24.5565C28.5849 24.4171 28.6449 24.2868 28.7439 24.1898L30.1439 25.6181ZM30.5737 24.5997C30.5582 23.8418 29.9485 23.2298 29.189 23.2143L29.148 25.2138C28.8327 25.2074 28.5805 24.9529 28.5741 24.6407L30.5737 24.5997ZM29.1685 23.2141H25.4605V25.2141H29.1685V23.2141ZM25.2407 23.2385C24.702 23.3599 24.2816 23.7803 24.1602 24.319L26.1113 24.7587C26.0629 24.9733 25.895 25.1412 25.6804 25.1896L25.2407 23.2385ZM25.3837 25.5076L25.4164 25.4993L24.9205 23.5617L24.8878 23.5701L25.3837 25.5076Z" fill="#0FDEFA" mask="url(#path-5-inside-1_104_8334)"/>
<defs>
<filter id="filter0_b_104_8334" x="-14" y="-14" width="70" height="70" filterUnits="userSpaceOnUse" color-interpolation-filters="sRGB">
<feFlood flood-opacity="0" result="BackgroundImageFix"/>
<feGaussianBlur in="BackgroundImageFix" stdDeviation="7"/>
<feComposite in2="SourceAlpha" operator="in" result="effect1_backgroundBlur_104_8334"/>
<feBlend mode="normal" in="SourceGraphic" in2="effect1_backgroundBlur_104_8334" result="shape"/>
</filter>
</defs>
</svg>
