<svg width="42" height="42" viewBox="0 0 42 42" fill="none" xmlns="http://www.w3.org/2000/svg">
<path d="M41 21C41 9.9543 32.0457 1 21 1C9.9543 1 1 9.9543 1 21C1 32.0457 9.9543 41 21 41C32.0457 41 41 32.0457 41 21Z" fill="white" fill-opacity="0.05"/>
<path d="M41.5 21C41.5 9.67816 32.3218 0.5 21 0.5C9.67816 0.5 0.5 9.67816 0.5 21C0.5 32.3218 9.67816 41.5 21 41.5C32.3218 41.5 41.5 32.3218 41.5 21Z" stroke="#FF7971"/>
<path d="M21.335 24.028C21.3324 25.0314 21.5883 26.0176 22.0766 26.8919H14.026C13.7577 26.8919 13.5005 26.7853 13.3108 26.5957C13.1212 26.406 13.0146 26.1488 13.0146 25.8805V14.0262C13.0146 13.7579 13.1212 13.5007 13.3108 13.311C13.5005 13.1214 13.7577 13.0148 14.026 13.0148H23.102C23.3702 13.0148 23.6274 13.1214 23.8171 13.311C24.0068 13.5007 24.1133 13.7579 24.1133 14.0262V20.8795C24.1133 21.2459 23.9677 21.5974 23.7086 21.8566C23.4495 22.1157 23.098 22.2613 22.7315 22.2613H21.8054C21.6806 22.2613 21.561 22.3108 21.4727 22.3991C21.3845 22.4873 21.335 22.6069 21.335 22.7317V24.028ZM25.2997 29.6408C25.3648 29.6732 25.4373 29.6904 25.5099 29.6904C25.5825 29.6904 25.6542 29.6736 25.7192 29.6412L26.447 29.2709C26.4469 29.271 26.4472 29.2708 26.447 29.2709C27.4231 28.7876 28.2445 28.0398 28.8168 27.113C29.3892 26.1861 29.69 25.1172 29.6848 24.0278V22.7317C29.6848 22.6069 29.6353 22.4873 29.547 22.3991C29.4588 22.3108 29.3392 22.2613 29.2144 22.2613H28.2883C27.9218 22.2613 27.5703 22.1157 27.3112 21.8566C27.0521 21.5974 26.9065 21.2459 26.9065 20.8795C26.9065 20.7547 26.8569 20.635 26.7687 20.5468C26.6805 20.4586 26.5608 20.409 26.436 20.409H25.0542V14.0262C25.0542 13.5084 24.8485 13.0118 24.4824 12.6457C24.1163 12.2796 23.6197 12.0739 23.102 12.0739H14.026C13.5082 12.0739 13.0116 12.2796 12.6455 12.6457C12.2794 13.0118 12.0737 13.5084 12.0737 14.0262V25.8805C12.0737 26.1369 12.1242 26.3908 12.2223 26.6276C12.3204 26.8645 12.4642 27.0797 12.6455 27.261C12.8268 27.4423 13.042 27.5861 13.2789 27.6842C13.5157 27.7823 13.7696 27.8328 14.026 27.8328H22.7297C23.2412 28.4306 23.8677 28.9196 24.5722 29.2706C24.5721 29.2706 24.5723 29.2706 24.5722 29.2706L25.2997 29.6408ZM28.7439 24.0283C28.7473 24.9432 28.494 25.8411 28.0127 26.6193C27.5314 27.3974 26.8414 28.0248 26.0212 28.4303L25.5099 28.6877L24.9992 28.4307C24.3635 28.112 23.8037 27.6603 23.3579 27.1063C23.3465 27.0882 23.3335 27.071 23.3192 27.0551C22.6415 26.192 22.274 25.1259 22.2759 24.0285V23.2022H22.7315C23.2804 23.2021 23.8114 23.0076 24.2306 22.6533C24.6281 22.3173 24.9006 21.8581 25.0057 21.3499H26.0141C26.1192 21.8581 26.3917 22.3173 26.7892 22.6533C27.2084 23.0076 27.7394 23.2021 28.2882 23.2022H28.7439V24.0283Z" fill="#FF7971"/>
<path d="M21.335 24.028C21.3324 25.0314 21.5883 26.0176 22.0766 26.8919H14.026C13.7577 26.8919 13.5005 26.7853 13.3108 26.5957C13.1212 26.406 13.0146 26.1488 13.0146 25.8805V14.0262C13.0146 13.7579 13.1212 13.5007 13.3108 13.311C13.5005 13.1214 13.7577 13.0148 14.026 13.0148H23.102C23.3702 13.0148 23.6274 13.1214 23.8171 13.311C24.0068 13.5007 24.1133 13.7579 24.1133 14.0262V20.8795C24.1133 21.2459 23.9677 21.5974 23.7086 21.8566C23.4495 22.1157 23.098 22.2613 22.7315 22.2613H21.8054C21.6806 22.2613 21.561 22.3108 21.4727 22.3991C21.3845 22.4873 21.335 22.6069 21.335 22.7317V24.028ZM21.335 24.028L21.435 24.0283M26.447 29.2709L25.7192 29.6412C25.6542 29.6736 25.5825 29.6904 25.5099 29.6904C25.4373 29.6904 25.3648 29.6732 25.2997 29.6408L24.5722 29.2706M26.447 29.2709C26.4472 29.2708 26.4469 29.271 26.447 29.2709ZM26.447 29.2709C27.4231 28.7876 28.2445 28.0398 28.8168 27.113C29.3892 26.1861 29.69 25.1172 29.6848 24.0278V22.7317C29.6848 22.6069 29.6353 22.4873 29.547 22.3991C29.4588 22.3108 29.3392 22.2613 29.2144 22.2613H28.2883C27.9218 22.2613 27.5703 22.1157 27.3112 21.8566C27.0521 21.5974 26.9065 21.2459 26.9065 20.8795C26.9065 20.7547 26.8569 20.635 26.7687 20.5468C26.6805 20.4586 26.5608 20.409 26.436 20.409H25.0542V14.0262C25.0542 13.5084 24.8485 13.0118 24.4824 12.6457C24.1163 12.2796 23.6197 12.0739 23.102 12.0739H14.026C13.5082 12.0739 13.0116 12.2796 12.6455 12.6457C12.2794 13.0118 12.0737 13.5084 12.0737 14.0262V25.8805C12.0737 26.1369 12.1242 26.3908 12.2223 26.6276C12.3204 26.8645 12.4642 27.0797 12.6455 27.261C12.8268 27.4423 13.042 27.5861 13.2789 27.6842C13.5157 27.7823 13.7696 27.8328 14.026 27.8328H22.7297C23.2412 28.4306 23.8677 28.9196 24.5722 29.2706M24.5722 29.2706C24.5723 29.2706 24.5721 29.2706 24.5722 29.2706ZM28.7439 24.0283C28.7473 24.9432 28.494 25.8411 28.0127 26.6193C27.5314 27.3974 26.8414 28.0248 26.0212 28.4303L25.5099 28.6877L24.9992 28.4307C24.3635 28.112 23.8037 27.6603 23.3579 27.1063C23.3465 27.0882 23.3335 27.071 23.3192 27.0551C22.6415 26.192 22.274 25.1259 22.2759 24.0285V23.2022H22.7315C23.2804 23.2021 23.8114 23.0076 24.2306 22.6533C24.6281 22.3173 24.9006 21.8581 25.0057 21.3499H26.0141C26.1192 21.8581 26.3917 22.3173 26.7892 22.6533C27.2084 23.0076 27.7394 23.2021 28.2882 23.2022H28.7439V24.0283Z" stroke="#FF7971" stroke-width="0.2"/>
<path d="M14.2743 14.7671H19.8644C19.9303 14.7671 19.9935 14.728 20.0401 14.6585C20.0867 14.5891 20.1128 14.4949 20.1128 14.3966C20.1128 14.2984 20.0867 14.2041 20.0401 14.1347C19.9935 14.0652 19.9303 14.0262 19.8644 14.0262H14.2743C14.2084 14.0262 14.1452 14.0652 14.0986 14.1347C14.0521 14.2041 14.0259 14.2984 14.0259 14.3966C14.0259 14.4949 14.0521 14.5891 14.0986 14.6585C14.1452 14.728 14.2084 14.7671 14.2743 14.7671Z" fill="#FF7971"/>
<mask id="mask0_238_866" style="mask-type:luminance" maskUnits="userSpaceOnUse" x="14" y="14" width="7" height="1">
<path d="M14.2743 14.7671H19.8644C19.9303 14.7671 19.9935 14.728 20.0401 14.6585C20.0867 14.5891 20.1128 14.4949 20.1128 14.3966C20.1128 14.2984 20.0867 14.2041 20.0401 14.1347C19.9935 14.0652 19.9303 14.0262 19.8644 14.0262H14.2743C14.2084 14.0262 14.1452 14.0652 14.0986 14.1347C14.0521 14.2041 14.0259 14.2984 14.0259 14.3966C14.0259 14.4949 14.0521 14.5891 14.0986 14.6585C14.1452 14.728 14.2084 14.7671 14.2743 14.7671Z" fill="white"/>
</mask>
<g mask="url(#mask0_238_866)">
<path d="M14.2743 15.7671H19.8644V13.7671H14.2743V15.7671ZM19.8644 15.7671C20.3535 15.7671 20.6947 15.4778 20.8706 15.2155L19.2096 14.1016C19.2923 13.9782 19.507 13.7671 19.8644 13.7671V15.7671ZM20.8706 15.2155C21.0459 14.9542 21.1128 14.6578 21.1128 14.3966H19.1128C19.1128 14.3583 19.1178 14.3162 19.1304 14.2707C19.1428 14.2262 19.1658 14.1668 19.2096 14.1016L20.8706 15.2155ZM21.1128 14.3966C21.1128 14.1354 21.0459 13.839 20.8706 13.5777L19.2096 14.6917C19.1658 14.6264 19.1428 14.567 19.1304 14.5225C19.1178 14.477 19.1128 14.4349 19.1128 14.3966H21.1128ZM20.8706 13.5777C20.6947 13.3154 20.3535 13.0262 19.8644 13.0262V15.0262C19.507 15.0262 19.2923 14.815 19.2096 14.6917L20.8706 13.5777ZM19.8644 13.0262H14.2743V15.0262H19.8644V13.0262ZM14.2743 13.0262C13.7852 13.0262 13.444 13.3154 13.2681 13.5777L14.9292 14.6917C14.8464 14.815 14.6317 15.0262 14.2743 15.0262V13.0262ZM13.2681 13.5777C13.0929 13.839 13.0259 14.1354 13.0259 14.3966H15.0259C15.0259 14.4349 15.0209 14.477 15.0083 14.5225C14.9959 14.567 14.9729 14.6264 14.9292 14.6917L13.2681 13.5777ZM13.0259 14.3966C13.0259 14.6578 13.0929 14.9542 13.2681 15.2155L14.9292 14.1016C14.9729 14.1668 14.9959 14.2262 15.0083 14.2707C15.0209 14.3162 15.0259 14.3583 15.0259 14.3966H13.0259ZM13.2681 15.2155C13.444 15.4778 13.7852 15.7671 14.2743 15.7671V13.7671C14.6317 13.7671 14.8464 13.9782 14.9292 14.1016L13.2681 15.2155Z" fill="#FF7971"/>
</g>
<path d="M14.3098 16.6193H20.6985C20.7738 16.6193 20.846 16.5803 20.8992 16.5108C20.9525 16.4413 20.9824 16.3471 20.9824 16.2489C20.9824 16.1506 20.9525 16.0564 20.8992 15.9869C20.846 15.9174 20.7738 15.8784 20.6985 15.8784H14.3098C14.2345 15.8784 14.1623 15.9174 14.109 15.9869C14.0558 16.0564 14.0259 16.1506 14.0259 16.2489C14.0259 16.3471 14.0558 16.4413 14.109 16.5108C14.1623 16.5803 14.2345 16.6193 14.3098 16.6193Z" fill="#FF7971"/>
<mask id="mask1_238_866" style="mask-type:luminance" maskUnits="userSpaceOnUse" x="14" y="15" width="7" height="2">
<path d="M14.3098 16.6193H20.6985C20.7738 16.6193 20.846 16.5803 20.8992 16.5108C20.9525 16.4413 20.9824 16.3471 20.9824 16.2489C20.9824 16.1506 20.9525 16.0564 20.8992 15.9869C20.846 15.9174 20.7738 15.8784 20.6985 15.8784H14.3098C14.2345 15.8784 14.1623 15.9174 14.109 15.9869C14.0558 16.0564 14.0259 16.1506 14.0259 16.2489C14.0259 16.3471 14.0558 16.4413 14.109 16.5108C14.1623 16.5803 14.2345 16.6193 14.3098 16.6193Z" fill="white"/>
</mask>
<g mask="url(#mask1_238_866)">
<path d="M14.3098 17.6193H20.6985V15.6193H14.3098V17.6193ZM20.6985 17.6193C21.1378 17.6193 21.4852 17.3902 21.6929 17.1191L20.1056 15.9025C20.2068 15.7704 20.4097 15.6193 20.6985 15.6193V17.6193ZM21.6929 17.1191C21.8962 16.8539 21.9824 16.5387 21.9824 16.2489H19.9824C19.9824 16.1555 20.0087 16.0288 20.1056 15.9025L21.6929 17.1191ZM21.9824 16.2489C21.9824 15.959 21.8962 15.6439 21.6929 15.3786L20.1056 16.5953C20.0087 16.4689 19.9824 16.3422 19.9824 16.2489H21.9824ZM21.6929 15.3786C21.4852 15.1076 21.1378 14.8784 20.6985 14.8784V16.8784C20.4097 16.8784 20.2068 16.7273 20.1056 16.5953L21.6929 15.3786ZM20.6985 14.8784H14.3098V16.8784H20.6985V14.8784ZM14.3098 14.8784C13.8704 14.8784 13.5231 15.1076 13.3154 15.3786L14.9027 16.5953C14.8015 16.7273 14.5986 16.8784 14.3098 16.8784V14.8784ZM13.3154 15.3786C13.112 15.6439 13.0259 15.959 13.0259 16.2489H15.0259C15.0259 16.3422 14.9995 16.4689 14.9027 16.5953L13.3154 15.3786ZM13.0259 16.2489C13.0259 16.5387 13.112 16.8539 13.3154 17.1191L14.9027 15.9025C14.9995 16.0288 15.0259 16.1555 15.0259 16.2489H13.0259ZM13.3154 17.1191C13.5231 17.3902 13.8704 17.6193 14.3098 17.6193V15.6193C14.5986 15.6193 14.8015 15.7704 14.9027 15.9025L13.3154 17.1191Z" fill="#FF7971"/>
</g>
<path d="M19.9531 23.2874H14.3963C14.2981 23.2874 14.2039 23.3264 14.1344 23.3959C14.0649 23.4654 14.0259 23.5596 14.0259 23.6578C14.0259 23.7561 14.0649 23.8503 14.1344 23.9198C14.2039 23.9893 14.2981 24.0283 14.3963 24.0283H19.9531C20.0513 24.0283 20.1455 23.9893 20.215 23.9198C20.2845 23.8503 20.3235 23.7561 20.3235 23.6578C20.3235 23.5596 20.2845 23.4654 20.215 23.3959C20.1455 23.3264 20.0513 23.2874 19.9531 23.2874Z" fill="#FF7971"/>
<mask id="mask2_238_866" style="mask-type:luminance" maskUnits="userSpaceOnUse" x="14" y="23" width="7" height="2">
<path d="M19.9531 23.2874H14.3963C14.2981 23.2874 14.2039 23.3264 14.1344 23.3959C14.0649 23.4654 14.0259 23.5596 14.0259 23.6578C14.0259 23.7561 14.0649 23.8503 14.1344 23.9198C14.2039 23.9893 14.2981 24.0283 14.3963 24.0283H19.9531C20.0513 24.0283 20.1455 23.9893 20.215 23.9198C20.2845 23.8503 20.3235 23.7561 20.3235 23.6578C20.3235 23.5596 20.2845 23.4654 20.215 23.3959C20.1455 23.3264 20.0513 23.2874 19.9531 23.2874Z" fill="white"/>
</mask>
<g mask="url(#mask2_238_866)">
<path d="M19.9531 22.2874H14.3963V24.2874H19.9531V22.2874ZM14.3963 22.2874C14.0329 22.2874 13.6843 22.4318 13.4273 22.6888L14.8415 24.103C14.7234 24.2211 14.5633 24.2874 14.3963 24.2874V22.2874ZM13.4273 22.6888C13.1703 22.9458 13.0259 23.2944 13.0259 23.6578H15.0259C15.0259 23.8248 14.9596 23.9849 14.8415 24.103L13.4273 22.6888ZM13.0259 23.6578C13.0259 24.0213 13.1703 24.3699 13.4273 24.6269L14.8415 23.2127C14.9596 23.3307 15.0259 23.4909 15.0259 23.6578H13.0259ZM13.4273 24.6269C13.6843 24.8839 14.0329 25.0283 14.3963 25.0283V23.0283C14.5633 23.0283 14.7234 23.0946 14.8415 23.2127L13.4273 24.6269ZM14.3963 25.0283H19.9531V23.0283H14.3963V25.0283ZM19.9531 25.0283C20.3165 25.0283 20.6651 24.8839 20.9221 24.6269L19.5079 23.2127C19.626 23.0946 19.7861 23.0283 19.9531 23.0283V25.0283ZM20.9221 24.6269C21.1791 24.3699 21.3235 24.0213 21.3235 23.6578H19.3235C19.3235 23.4909 19.3898 23.3307 19.5079 23.2127L20.9221 24.6269ZM21.3235 23.6578C21.3235 23.2944 21.1791 22.9458 20.9221 22.6888L19.5079 24.103C19.3898 23.9849 19.3235 23.8248 19.3235 23.6578H21.3235ZM20.9221 22.6888C20.6651 22.4318 20.3165 22.2874 19.9531 22.2874V24.2874C19.7861 24.2874 19.626 24.2211 19.5079 24.103L20.9221 22.6888Z" fill="#FF7971"/>
</g>
<path d="M19.9531 21.4352H14.3963C14.2981 21.4352 14.2039 21.4742 14.1344 21.5437C14.0649 21.6131 14.0259 21.7074 14.0259 21.8056C14.0259 21.9038 14.0649 21.9981 14.1344 22.0675C14.2039 22.137 14.2981 22.176 14.3963 22.176H19.9531C20.0513 22.176 20.1455 22.137 20.215 22.0675C20.2845 21.9981 20.3235 21.9038 20.3235 21.8056C20.3235 21.7074 20.2845 21.6131 20.215 21.5437C20.1455 21.4742 20.0513 21.4352 19.9531 21.4352Z" fill="#FF7971"/>
<mask id="mask3_238_866" style="mask-type:luminance" maskUnits="userSpaceOnUse" x="14" y="21" width="7" height="2">
<path d="M19.9531 21.4352H14.3963C14.2981 21.4352 14.2039 21.4742 14.1344 21.5437C14.0649 21.6131 14.0259 21.7074 14.0259 21.8056C14.0259 21.9038 14.0649 21.9981 14.1344 22.0675C14.2039 22.137 14.2981 22.176 14.3963 22.176H19.9531C20.0513 22.176 20.1455 22.137 20.215 22.0675C20.2845 21.9981 20.3235 21.9038 20.3235 21.8056C20.3235 21.7074 20.2845 21.6131 20.215 21.5437C20.1455 21.4742 20.0513 21.4352 19.9531 21.4352Z" fill="white"/>
</mask>
<g mask="url(#mask3_238_866)">
<path d="M19.9531 20.4352H14.3963V22.4352H19.9531V20.4352ZM14.3963 20.4352C14.0329 20.4352 13.6843 20.5795 13.4273 20.8365L14.8415 22.2508C14.7234 22.3688 14.5633 22.4352 14.3963 22.4352V20.4352ZM13.4273 20.8365C13.1703 21.0936 13.0259 21.4421 13.0259 21.8056H15.0259C15.0259 21.9726 14.9596 22.1327 14.8415 22.2508L13.4273 20.8365ZM13.0259 21.8056C13.0259 22.1691 13.1703 22.5176 13.4273 22.7747L14.8415 21.3604C14.9596 21.4785 15.0259 21.6386 15.0259 21.8056H13.0259ZM13.4273 22.7747C13.6843 23.0317 14.0329 23.176 14.3963 23.176V21.176C14.5633 21.176 14.7234 21.2424 14.8415 21.3604L13.4273 22.7747ZM14.3963 23.176H19.9531V21.176H14.3963V23.176ZM19.9531 23.176C20.3165 23.176 20.6651 23.0317 20.9221 22.7747L19.5079 21.3604C19.626 21.2424 19.7861 21.176 19.9531 21.176V23.176ZM20.9221 22.7747C21.1791 22.5176 21.3235 22.1691 21.3235 21.8056H19.3235C19.3235 21.6386 19.3898 21.4785 19.5079 21.3604L20.9221 22.7747ZM21.3235 21.8056C21.3235 21.4421 21.1791 21.0936 20.9221 20.8365L19.5079 22.2508C19.3898 22.1327 19.3235 21.9726 19.3235 21.8056H21.3235ZM20.9221 20.8365C20.6651 20.5795 20.3165 20.4352 19.9531 20.4352V22.4352C19.7861 22.4352 19.626 22.3688 19.5079 22.2508L20.9221 20.8365Z" fill="#FF7971"/>
</g>
<path d="M14.3808 20.3238H22.3666C22.4607 20.3238 22.551 20.2848 22.6176 20.2153C22.6841 20.1458 22.7215 20.0516 22.7215 19.9533C22.7215 19.8551 22.6841 19.7609 22.6176 19.6914C22.551 19.6219 22.4607 19.5829 22.3666 19.5829H14.3808C14.2867 19.5829 14.1964 19.6219 14.1298 19.6914C14.0633 19.7609 14.0259 19.8551 14.0259 19.9533C14.0259 20.0516 14.0633 20.1458 14.1298 20.2153C14.1964 20.2848 14.2867 20.3238 14.3808 20.3238Z" fill="#FF7971"/>
<mask id="mask4_238_866" style="mask-type:luminance" maskUnits="userSpaceOnUse" x="14" y="19" width="9" height="2">
<path d="M14.3808 20.3238H22.3666C22.4607 20.3238 22.551 20.2848 22.6176 20.2153C22.6841 20.1458 22.7215 20.0516 22.7215 19.9533C22.7215 19.8551 22.6841 19.7609 22.6176 19.6914C22.551 19.6219 22.4607 19.5829 22.3666 19.5829H14.3808C14.2867 19.5829 14.1964 19.6219 14.1298 19.6914C14.0633 19.7609 14.0259 19.8551 14.0259 19.9533C14.0259 20.0516 14.0633 20.1458 14.1298 20.2153C14.1964 20.2848 14.2867 20.3238 14.3808 20.3238Z" fill="white"/>
</mask>
<g mask="url(#mask4_238_866)">
<path d="M14.3808 21.3238H22.3666V19.3238H14.3808V21.3238ZM22.3666 21.3238C22.7401 21.3238 23.0892 21.1685 23.3397 20.9071L21.8955 19.5235C22.0129 19.401 22.1814 19.3238 22.3666 19.3238V21.3238ZM23.3397 20.9071C23.5887 20.6471 23.7215 20.3033 23.7215 19.9533H21.7215C21.7215 19.7999 21.7795 19.6445 21.8955 19.5235L23.3397 20.9071ZM23.7215 19.9533C23.7215 19.6034 23.5887 19.2595 23.3397 18.9996L21.8955 20.3832C21.7795 20.2622 21.7215 20.1068 21.7215 19.9533H23.7215ZM23.3397 18.9996C23.0892 18.7381 22.7401 18.5829 22.3666 18.5829V20.5829C22.1814 20.5829 22.0129 20.5057 21.8955 20.3832L23.3397 18.9996ZM22.3666 18.5829H14.3808V20.5829H22.3666V18.5829ZM14.3808 18.5829C14.0073 18.5829 13.6582 18.7381 13.4078 18.9996L14.8519 20.3832C14.7346 20.5057 14.566 20.5829 14.3808 20.5829V18.5829ZM13.4078 18.9996C13.1587 19.2595 13.0259 19.6034 13.0259 19.9533H15.0259C15.0259 20.1068 14.9679 20.2622 14.8519 20.3832L13.4078 18.9996ZM13.0259 19.9533C13.0259 20.3033 13.1587 20.6471 13.4078 20.9071L14.8519 19.5235C14.9679 19.6445 15.0259 19.7999 15.0259 19.9533H13.0259ZM13.4078 20.9071C13.6582 21.1685 14.0073 21.3238 14.3808 21.3238V19.3238C14.566 19.3238 14.7346 19.401 14.8519 19.5235L13.4078 20.9071Z" fill="#FF7971"/>
</g>
<path d="M14.3453 18.4716H21.5325C21.6173 18.4716 21.6985 18.4325 21.7584 18.363C21.8183 18.2936 21.852 18.1994 21.852 18.1011C21.852 18.0029 21.8183 17.9086 21.7584 17.8392C21.6985 17.7697 21.6173 17.7307 21.5325 17.7307H14.3453C14.2606 17.7307 14.1793 17.7697 14.1194 17.8392C14.0595 17.9086 14.0259 18.0029 14.0259 18.1011C14.0259 18.1994 14.0595 18.2936 14.1194 18.363C14.1793 18.4325 14.2606 18.4716 14.3453 18.4716Z" fill="#FF7971"/>
<mask id="mask5_238_866" style="mask-type:luminance" maskUnits="userSpaceOnUse" x="14" y="17" width="8" height="2">
<path d="M14.3453 18.4716H21.5325C21.6173 18.4716 21.6985 18.4325 21.7584 18.363C21.8183 18.2936 21.852 18.1994 21.852 18.1011C21.852 18.0029 21.8183 17.9086 21.7584 17.8392C21.6985 17.7697 21.6173 17.7307 21.5325 17.7307H14.3453C14.2606 17.7307 14.1793 17.7697 14.1194 17.8392C14.0595 17.9086 14.0259 18.0029 14.0259 18.1011C14.0259 18.1994 14.0595 18.2936 14.1194 18.363C14.1793 18.4325 14.2606 18.4716 14.3453 18.4716Z" fill="white"/>
</mask>
<g mask="url(#mask5_238_866)">
<path d="M14.3453 19.4716H21.5325V17.4716H14.3453V19.4716ZM21.5325 19.4716C21.9343 19.4716 22.2837 19.2852 22.5157 19.0161L21.0011 17.71C21.1133 17.5798 21.3002 17.4716 21.5325 17.4716V19.4716ZM22.5157 19.0161C22.7438 18.7516 22.852 18.4206 22.852 18.1011H20.852C20.852 17.9781 20.8928 17.8356 21.0011 17.71L22.5157 19.0161ZM22.852 18.1011C22.852 17.7816 22.7438 17.4506 22.5157 17.1861L21.0011 18.4922C20.8928 18.3666 20.852 18.2241 20.852 18.1011H22.852ZM22.5157 17.1861C22.2837 16.917 21.9343 16.7307 21.5325 16.7307V18.7307C21.3002 18.7307 21.1133 18.6224 21.0011 18.4922L22.5157 17.1861ZM21.5325 16.7307H14.3453V18.7307H21.5325V16.7307ZM14.3453 16.7307C13.9435 16.7307 13.5942 16.917 13.3621 17.1861L14.8768 18.4922C14.7645 18.6224 14.5777 18.7307 14.3453 18.7307V16.7307ZM13.3621 17.1861C13.134 17.4506 13.0259 17.7816 13.0259 18.1011H15.0259C15.0259 18.2241 14.985 18.3666 14.8768 18.4922L13.3621 17.1861ZM13.0259 18.1011C13.0259 18.4206 13.134 18.7516 13.3621 19.0161L14.8768 17.71C14.985 17.8356 15.0259 17.9781 15.0259 18.1011H13.0259ZM13.3621 19.0161C13.5942 19.2852 13.9435 19.4716 14.3453 19.4716V17.4716C14.5777 17.4716 14.7645 17.5798 14.8768 17.71L13.3621 19.0161Z" fill="#FF7971"/>
</g>
<path d="M19.9531 25.1396H14.3963C14.2981 25.1396 14.2039 25.1787 14.1344 25.2482C14.0649 25.3176 14.0259 25.4118 14.0259 25.5101C14.0259 25.6083 14.0649 25.7026 14.1344 25.772C14.2039 25.8415 14.2981 25.8805 14.3963 25.8805H19.9531C20.0513 25.8805 20.1455 25.8415 20.215 25.772C20.2845 25.7026 20.3235 25.6083 20.3235 25.5101C20.3235 25.4118 20.2845 25.3176 20.215 25.2482C20.1455 25.1787 20.0513 25.1396 19.9531 25.1396Z" fill="#FF7971"/>
<mask id="mask6_238_866" style="mask-type:luminance" maskUnits="userSpaceOnUse" x="14" y="25" width="7" height="1">
<path d="M19.9531 25.1396H14.3963C14.2981 25.1396 14.2039 25.1787 14.1344 25.2482C14.0649 25.3176 14.0259 25.4118 14.0259 25.5101C14.0259 25.6083 14.0649 25.7026 14.1344 25.772C14.2039 25.8415 14.2981 25.8805 14.3963 25.8805H19.9531C20.0513 25.8805 20.1455 25.8415 20.215 25.772C20.2845 25.7026 20.3235 25.6083 20.3235 25.5101C20.3235 25.4118 20.2845 25.3176 20.215 25.2482C20.1455 25.1787 20.0513 25.1396 19.9531 25.1396Z" fill="white"/>
</mask>
<g mask="url(#mask6_238_866)">
<path d="M19.9531 24.1396H14.3963V26.1396H19.9531V24.1396ZM14.3963 24.1396C14.0329 24.1396 13.6843 24.284 13.4273 24.541L14.8415 25.9553C14.7234 26.0733 14.5633 26.1396 14.3963 26.1396V24.1396ZM13.4273 24.541C13.1703 24.7981 13.0259 25.1466 13.0259 25.5101H15.0259C15.0259 25.6771 14.9596 25.8372 14.8415 25.9553L13.4273 24.541ZM13.0259 25.5101C13.0259 25.8736 13.1703 26.2221 13.4273 26.4792L14.8415 25.0649C14.9596 25.183 15.0259 25.3431 15.0259 25.5101H13.0259ZM13.4273 26.4792C13.6843 26.7362 14.0329 26.8805 14.3963 26.8805V24.8805C14.5633 24.8805 14.7234 24.9469 14.8415 25.0649L13.4273 26.4792ZM14.3963 26.8805H19.9531V24.8805H14.3963V26.8805ZM19.9531 26.8805C20.3165 26.8805 20.6651 26.7362 20.9221 26.4792L19.5079 25.0649C19.626 24.9469 19.7861 24.8805 19.9531 24.8805V26.8805ZM20.9221 26.4792C21.1791 26.2221 21.3235 25.8736 21.3235 25.5101H19.3235C19.3235 25.3431 19.3898 25.183 19.5079 25.0649L20.9221 26.4792ZM21.3235 25.5101C21.3235 25.1466 21.1791 24.7981 20.9221 24.541L19.5079 25.9553C19.3898 25.8372 19.3235 25.6771 19.3235 25.5101H21.3235ZM20.9221 24.541C20.6651 24.284 20.3165 24.1396 19.9531 24.1396V26.1396C19.7861 26.1396 19.626 26.0733 19.5079 25.9553L20.9221 24.541Z" fill="#FF7971"/>
</g>
<path d="M26.8235 23.9524L25.2324 25.5416L24.5675 24.8785C24.4966 24.8178 24.4054 24.7861 24.3122 24.7897C24.219 24.7933 24.1305 24.8319 24.0646 24.8979C23.9986 24.9639 23.9599 25.0523 23.9563 25.1456C23.9527 25.2388 23.9844 25.3299 24.0451 25.4008L24.9713 26.3269C25.0407 26.3959 25.1346 26.4347 25.2324 26.4347C25.3303 26.4347 25.4242 26.3959 25.4936 26.3269L27.3458 24.4747C27.4065 24.4038 27.4382 24.3127 27.4346 24.2194C27.431 24.1262 27.3924 24.0378 27.3264 23.9718C27.2604 23.9058 27.172 23.8672 27.0788 23.8636C26.9855 23.86 26.8944 23.8917 26.8235 23.9524Z" fill="#FF7971"/>
<mask id="mask7_238_866" style="mask-type:luminance" maskUnits="userSpaceOnUse" x="23" y="23" width="5" height="4">
<path d="M26.8235 23.9524L25.2324 25.5416L24.5675 24.8785C24.4966 24.8178 24.4054 24.7861 24.3122 24.7897C24.219 24.7933 24.1305 24.8319 24.0646 24.8979C23.9986 24.9639 23.9599 25.0523 23.9563 25.1456C23.9527 25.2388 23.9844 25.3299 24.0451 25.4008L24.9713 26.3269C25.0407 26.3959 25.1346 26.4347 25.2324 26.4347C25.3303 26.4347 25.4242 26.3959 25.4936 26.3269L27.3458 24.4747C27.4065 24.4038 27.4382 24.3127 27.4346 24.2194C27.431 24.1262 27.3924 24.0378 27.3264 23.9718C27.2604 23.9058 27.172 23.8672 27.0788 23.8636C26.9855 23.86 26.8944 23.8917 26.8235 23.9524Z" fill="white"/>
</mask>
<g mask="url(#mask7_238_866)">
<path d="M26.8235 23.9524L26.173 23.1928L26.1439 23.2177L26.1168 23.2448L26.8235 23.9524ZM25.2324 25.5416L24.5263 26.2497L25.233 26.9544L25.9391 26.2491L25.2324 25.5416ZM24.5675 24.8785L25.2736 24.1704L25.2467 24.1436L25.2179 24.1189L24.5675 24.8785ZM24.0451 25.4008L23.2856 26.0513L23.3107 26.0806L23.338 26.1079L24.0451 25.4008ZM24.9713 26.3269L24.2641 27.034L24.2663 27.0361L24.9713 26.3269ZM25.4936 26.3269L26.1986 27.0361L26.2007 27.034L25.4936 26.3269ZM27.3458 24.4747L28.0529 25.1818L28.0803 25.1545L28.1054 25.1251L27.3458 24.4747ZM26.1168 23.2448L24.5257 24.8341L25.9391 26.2491L27.5302 24.6599L26.1168 23.2448ZM25.9385 24.8335L25.2736 24.1704L23.8613 25.5866L24.5263 26.2497L25.9385 24.8335ZM25.2179 24.1189C24.9557 23.8944 24.6185 23.7771 24.2736 23.7904L24.3508 25.7889C24.1924 25.7951 24.0375 25.7412 23.917 25.638L25.2179 24.1189ZM24.2736 23.7904C23.9287 23.8037 23.6015 23.9467 23.3574 24.1908L24.7717 25.605C24.6595 25.7171 24.5092 25.7828 24.3508 25.7889L24.2736 23.7904ZM23.3574 24.1908C23.1134 24.4349 22.9704 24.7621 22.9571 25.107L24.9556 25.1842C24.9495 25.3426 24.8838 25.4929 24.7717 25.605L23.3574 24.1908ZM22.9571 25.107C22.9438 25.4519 23.0611 25.7891 23.2856 26.0513L24.8047 24.7504C24.9078 24.8708 24.9617 25.0257 24.9556 25.1842L22.9571 25.107ZM23.338 26.1079L24.2641 27.034L25.6784 25.6198L24.7522 24.6937L23.338 26.1079ZM24.2663 27.0361C24.523 27.2914 24.8704 27.4347 25.2324 27.4347V25.4347C25.3987 25.4347 25.5583 25.5005 25.6763 25.6177L24.2663 27.0361ZM25.2324 27.4347C25.5945 27.4347 25.9418 27.2914 26.1986 27.0361L24.7886 25.6177C24.9065 25.5005 25.0661 25.4347 25.2324 25.4347V27.4347ZM26.2007 27.034L28.0529 25.1818L26.6387 23.7676L24.7865 25.6198L26.2007 27.034ZM28.1054 25.1251C28.3299 24.863 28.4472 24.5257 28.4339 24.1808L26.4354 24.258C26.4293 24.0996 26.4831 23.9447 26.5863 23.8242L28.1054 25.1251ZM28.4339 24.1808C28.4206 23.8359 28.2776 23.5088 28.0335 23.2647L26.6193 24.6789C26.5072 24.5668 26.4415 24.4165 26.4354 24.258L28.4339 24.1808ZM28.0335 23.2647C27.7894 23.0206 27.4623 22.8776 27.1174 22.8643L27.0402 24.8628C26.8817 24.8567 26.7314 24.791 26.6193 24.6789L28.0335 23.2647ZM27.1174 22.8643C26.7725 22.851 26.4352 22.9683 26.173 23.1928L27.474 24.7119C27.3535 24.815 27.1986 24.8689 27.0402 24.8628L27.1174 22.8643Z" fill="#FF7971"/>
</g>
</svg>
