<svg width="18" height="19" viewBox="0 0 18 19" fill="none" xmlns="http://www.w3.org/2000/svg">
<path d="M2.23993 7.26002C2.04261 7.2607 1.85357 7.3394 1.71404 7.47893C1.5745 7.61847 1.4958 7.80751 1.49512 8.00483V16.9757C1.49512 17.7924 2.17359 18.4709 2.99027 18.4709H14.946C15.7626 18.4709 16.4411 17.7924 16.4411 16.9757V8.00483C16.4404 7.80751 16.3617 7.61847 16.2222 7.47893C16.0827 7.3394 15.8936 7.2607 15.6963 7.26002C15.5981 7.25963 15.5008 7.27861 15.41 7.31583C15.3191 7.35306 15.2365 7.40779 15.1668 7.47695C15.0971 7.54612 15.0418 7.62836 15.0039 7.71893C14.966 7.8095 14.9463 7.90665 14.946 8.00483V16.9757H2.99027V8.00483C2.98993 7.90665 2.97023 7.8095 2.93234 7.71893C2.89444 7.62836 2.83909 7.54612 2.76941 7.47695C2.69973 7.40779 2.61711 7.35306 2.52627 7.31583C2.43542 7.27861 2.33811 7.25963 2.23993 7.26002Z" fill="#FBB040"/>
<path d="M1.49515 3.51938C0.678449 3.51938 0 4.19783 0 5.01453V7.26002C0 8.07672 0.678449 8.74965 1.49515 8.74965H7.47576C7.67309 8.74898 7.86212 8.67026 8.00165 8.53073C8.14119 8.3912 8.21989 8.20216 8.22057 8.00483C8.21989 7.8075 8.14119 7.61842 8.00165 7.47889C7.86212 7.33936 7.67309 7.26069 7.47576 7.26002H1.49515V5.01453H16.4411V7.26002H15.6963C15.5982 7.25963 15.5008 7.27861 15.41 7.31583C15.3191 7.35306 15.2365 7.40778 15.1669 7.47695C15.0972 7.54612 15.0418 7.62836 15.0039 7.71893C14.966 7.8095 14.9463 7.90665 14.946 8.00483C14.9463 8.10301 14.966 8.20016 15.0039 8.29073C15.0418 8.3813 15.0972 8.4635 15.1669 8.53267C15.2365 8.60184 15.3191 8.6566 15.41 8.69383C15.5008 8.73106 15.5982 8.75003 15.6963 8.74965H16.4411C17.2578 8.74968 17.9363 8.07672 17.9363 7.26002V5.01453C17.9363 4.19783 17.2578 3.51938 16.4411 3.51938H1.49515ZM10.4661 7.26002C10.3679 7.25963 10.2706 7.27857 10.1797 7.31579C10.0889 7.35301 10.0063 7.40778 9.93658 7.47695C9.8669 7.54612 9.81151 7.62836 9.77361 7.71893C9.73571 7.8095 9.71606 7.90665 9.71572 8.00483C9.71606 8.10301 9.73571 8.20016 9.77361 8.29073C9.81151 8.38131 9.8669 8.4635 9.93658 8.53267C10.0063 8.60184 10.0889 8.65661 10.1797 8.69383C10.2706 8.73106 10.3679 8.75004 10.4661 8.74965H12.706C12.9034 8.74897 13.0924 8.67026 13.2319 8.53073C13.3715 8.3912 13.4502 8.20216 13.4508 8.00483C13.4502 7.80751 13.3715 7.61847 13.2319 7.47893C13.0924 7.3394 12.9034 7.2607 12.706 7.26002H10.4661Z" fill="#FBB040"/>
<path d="M12.4072 0.529065C11.7844 0.529065 11.0004 0.757319 10.1783 1.3125C9.35613 1.8676 8.55682 2.81777 8.37414 4.17039C8.3482 4.36641 8.40095 4.56471 8.52091 4.72189C8.64086 4.87907 8.81822 4.9823 9.01413 5.009C9.21014 5.03494 9.40846 4.98215 9.56564 4.86219C9.72281 4.74224 9.82605 4.56492 9.85274 4.36901C9.9728 3.47949 10.4498 2.93304 11.0113 2.55386C11.5729 2.17472 12.2826 2.02422 12.4072 2.02422C12.8016 2.02422 12.9512 2.12758 13.0637 2.25046C13.1762 2.37334 13.2561 2.57047 13.268 2.8077C13.2793 3.04498 13.2154 3.30706 13.1411 3.44217C13.0669 3.5772 13.0572 3.51932 13.1524 3.51932C13.0543 3.51966 12.9571 3.53932 12.8665 3.57721C12.776 3.61511 12.6937 3.6705 12.6246 3.74018C12.5554 3.80986 12.5006 3.89248 12.4634 3.98333C12.4262 4.07418 12.4072 4.17148 12.4076 4.26966C12.4083 4.46699 12.487 4.65602 12.6265 4.79556C12.7661 4.93509 12.9551 5.0138 13.1524 5.01448C13.77 5.01448 14.215 4.58471 14.449 4.15927C14.6829 3.73383 14.7834 3.24604 14.7579 2.73589C14.7325 2.2257 14.5687 1.67852 14.1676 1.24074C13.7664 0.802951 13.1338 0.529065 12.4072 0.529065Z" fill="#FBB040"/>
<path d="M5.52798 0.529053C4.80136 0.529053 4.16921 0.803066 3.768 1.24077C3.36683 1.67855 3.20309 2.22573 3.17767 2.73592C3.15224 3.24607 3.25282 3.7339 3.48663 4.15935C3.72052 4.58479 4.16558 5.01451 4.78316 5.01451C4.98049 5.01383 5.16953 4.93512 5.30906 4.79559C5.44859 4.65605 5.5273 4.46702 5.52798 4.26969C5.52837 4.17151 5.50939 4.07421 5.47216 3.98336C5.43494 3.89251 5.38021 3.8099 5.31104 3.74021C5.24188 3.67053 5.15964 3.61518 5.06906 3.57729C4.97849 3.53939 4.88134 3.51969 4.78316 3.51936C4.87808 3.51936 4.87411 3.57727 4.8001 3.44224C4.72581 3.30722 4.65578 3.045 4.66765 2.80777C4.67895 2.57049 4.75916 2.37326 4.87187 2.25049C4.98429 2.12762 5.13401 2.02425 5.52841 2.02425C5.65298 2.02425 6.36274 2.17481 6.92425 2.55389C7.48579 2.93307 7.96272 3.47952 8.08286 4.36904C8.10956 4.56495 8.21279 4.74231 8.36997 4.86227C8.52714 4.98222 8.72546 5.03501 8.92147 5.00908C9.11738 4.98238 9.29469 4.8791 9.41465 4.72192C9.5346 4.56474 9.5874 4.36644 9.56146 4.17042C9.37869 2.8178 8.58496 1.86763 7.76286 1.31253C6.94074 0.757434 6.15082 0.529053 5.52798 0.529053Z" fill="#FBB040"/>
<path d="M7.47641 3.51938C7.37777 3.519 7.28 3.53815 7.18879 3.57572C7.09758 3.61329 7.01471 3.66855 6.94496 3.7383C6.87521 3.80806 6.81998 3.89093 6.78242 3.98214C6.74485 4.07335 6.72569 4.17107 6.72608 4.26972V16.9757C6.72641 17.0739 6.74607 17.1711 6.78397 17.2616C6.82186 17.3522 6.87726 17.4345 6.94694 17.5036C7.01662 17.5728 7.09923 17.6276 7.19008 17.6648C7.28093 17.702 7.37823 17.7209 7.47641 17.7206C7.67375 17.7199 7.86282 17.6412 8.00235 17.5017C8.14189 17.3621 8.22056 17.1731 8.22123 16.9757V4.26972C8.22162 4.17154 8.20268 4.07424 8.16546 3.98339C8.12823 3.89253 8.07346 3.80993 8.00429 3.74024C7.93512 3.67056 7.85289 3.61517 7.76232 3.57727C7.67174 3.53938 7.5746 3.51972 7.47641 3.51938Z" fill="#FBB040"/>
<path d="M10.4662 3.51938C10.3675 3.51899 10.2698 3.53815 10.1786 3.57572C10.0874 3.61329 10.0045 3.66851 9.9347 3.73826C9.86495 3.80801 9.80969 3.89092 9.77212 3.98214C9.73455 4.07335 9.71544 4.17107 9.71583 4.26972V16.9757C9.71616 17.0739 9.73582 17.1711 9.77371 17.2616C9.81161 17.3522 9.867 17.4345 9.93669 17.5036C10.0064 17.5728 10.089 17.6276 10.1798 17.6648C10.2707 17.702 10.368 17.721 10.4662 17.7206C10.6635 17.7199 10.8526 17.6412 10.9921 17.5016C11.1316 17.3621 11.2103 17.1731 11.211 16.9757V4.26972C11.2114 4.17154 11.1924 4.07424 11.1552 3.98339C11.118 3.89254 11.0632 3.80992 10.994 3.74024C10.9249 3.67056 10.8426 3.61521 10.7521 3.57731C10.6615 3.53942 10.5643 3.51972 10.4662 3.51938Z" fill="#FBB040"/>
</svg>
