<svg width="24" height="24" viewBox="0 0 24 24" fill="none" xmlns="http://www.w3.org/2000/svg">
<path d="M10.68 1.509L1.88 8.74807C1.33 9.20051 1 9.87918 1 10.5578V20.7378C1 21.982 1.99 23 3.2 23C5.63005 23 7.6 21.0301 7.6 18.6V16.2134C7.6 14.9692 8.59 13.9512 9.8 13.9512H14.2C15.41 13.9512 16.4 14.9692 16.4 16.2134V18.6C16.4 21.0301 18.3699 23 20.8 23C22.01 23 23 21.982 23 20.7378V10.5578C23 9.87918 22.67 9.20051 22.12 8.74807L13.32 1.509C12.66 0.830334 11.45 0.830334 10.68 1.509Z" fill="white" stroke="white" stroke-width="2" stroke-miterlimit="10" stroke-linecap="round" stroke-linejoin="round"/>
</svg>
