<svg width="16" height="18" viewBox="0 0 16 18" fill="none" xmlns="http://www.w3.org/2000/svg">
    <path
        d="M15.4129 10.2813L13.5075 8.39571C13.0311 7.91936 12.6937 7.28422 12.5548 6.54984V6.53C12.2571 4.98185 11.3837 3.67188 10.0539 2.81842C9.39895 2.40161 8.68442 2.12374 7.95004 1.9848C7.95004 1.86571 7.93019 1.76647 7.91035 1.64738C7.73171 0.674832 6.87825 0 5.92555 0C5.80646 0 5.68737 0.0198481 5.54843 0.0396961C5.01254 0.138936 4.55603 0.436656 4.25831 0.893161C3.96059 1.34966 3.8415 1.86571 3.94074 2.40161C3.96059 2.5207 4.00029 2.61994 4.03998 2.73903C2.55138 3.65203 1.51929 5.23988 1.34065 7.04604C1.28111 7.60179 1.30096 8.13769 1.42005 8.67358C1.55898 9.36826 1.49944 10.0232 1.24141 10.6187L0.169622 13.0401C-0.128098 13.715 -0.0288581 14.5089 0.427646 15.0845C0.804758 15.5807 1.38035 15.8586 1.99564 15.8586C2.11473 15.8586 2.23382 15.8387 2.3529 15.8189L14.361 13.6753C15.0953 13.5363 15.6908 13.0203 15.9091 12.3058C16.1274 11.5714 15.9488 10.8172 15.4129 10.2813ZM5.64767 2.06419C5.4095 2.12374 5.19117 2.20313 4.95299 2.28252C4.95299 2.26267 4.93314 2.24283 4.93314 2.20313C4.8339 1.64739 5.19117 1.11149 5.74691 1.01225C5.80646 0.992401 5.866 0.992401 5.94539 0.992401C6.42175 0.992401 6.8584 1.32982 6.95764 1.82602C6.95764 1.84587 6.95764 1.86571 6.95764 1.88556C6.52099 1.90541 6.08433 1.96495 5.64767 2.06419Z"
        fill="white" />
    <path
        d="M4.47664 17.2876C4.97284 17.625 5.54844 17.8037 6.14388 17.8037C6.32251 17.8037 6.52099 17.7838 6.69962 17.7441C7.47369 17.6052 8.14853 17.1487 8.58518 16.5135C8.72412 16.3151 8.82336 16.1166 8.90275 15.8983L3.9209 16.7914C4.07968 16.97 4.25831 17.1487 4.47664 17.2876Z"
        fill="white" />
</svg>