<svg width="25" height="15" viewBox="0 0 25 15" fill="none" xmlns="http://www.w3.org/2000/svg">
    <path
        d="M3.08949 0.000610601C2.94822 0.0136287 2.81704 0.0778601 2.72175 0.180664C2.62646 0.283469 2.57396 0.417411 2.57457 0.556149C2.57457 1.11706 2.393 1.48721 2.06854 1.7627C1.74407 2.03818 1.23934 2.22275 0.568182 2.22275C0.417495 2.22276 0.272985 2.2813 0.166433 2.38547C0.0598816 2.48965 1.49314e-05 2.63094 0 2.77827V7.50031V12.2223C1.64381e-05 12.3697 0.0598838 12.511 0.166435 12.6151C0.272986 12.7193 0.417496 12.7778 0.568182 12.7779C1.23934 12.7779 1.74407 12.9538 2.06854 13.2292C2.393 13.5047 2.57457 13.8835 2.57457 14.4445C2.57459 14.5918 2.63446 14.7331 2.74101 14.8373C2.84756 14.9415 2.99207 15 3.14276 15H12.5089H21.875C22.0257 15 22.1702 14.9415 22.2767 14.8373C22.3833 14.7331 22.4432 14.5918 22.4432 14.4445C22.4432 13.8812 22.6294 13.5035 22.9492 13.2292C23.269 12.955 23.7607 12.7779 24.4318 12.7779C24.5825 12.7778 24.727 12.7193 24.8336 12.6151C24.9401 12.511 25 12.3697 25 12.2223V7.50031V2.77827C25 2.63094 24.9401 2.48965 24.8336 2.38547C24.727 2.2813 24.5825 2.22276 24.4318 2.22275C23.7607 2.22275 23.269 2.03692 22.9492 1.7627C22.6294 1.48847 22.4432 1.11938 22.4432 0.556149C22.4432 0.408817 22.3833 0.267517 22.2767 0.163337C22.1702 0.0591576 22.0257 0.000625303 21.875 0.000610601H12.5089H3.14276C3.12501 -0.000203534 3.10723 -0.000203534 3.08949 0.000610601ZM3.59553 1.11167H12.5089H21.4222C21.5366 1.69649 21.7622 2.23388 22.1946 2.60468C22.634 2.9815 23.2255 3.16191 23.8636 3.247V7.50031V11.7449C23.2252 11.83 22.6342 12.0103 22.1946 12.3873C21.7612 12.7589 21.5361 13.3024 21.4222 13.8889H12.5089H3.59553C3.47959 13.3013 3.242 12.7579 2.8054 12.3873C2.36256 12.0113 1.77571 11.8298 1.13636 11.7449V7.50031V3.247C1.77542 3.16211 2.36273 2.98053 2.8054 2.60468C3.24099 2.23483 3.47903 1.69764 3.59553 1.11167ZM4.54545 3.33381C4.39477 3.33382 4.25026 3.39236 4.14371 3.49654C4.03715 3.60071 3.97729 3.74202 3.97727 3.88935V11.1112C3.97728 11.2586 4.03715 11.3999 4.1437 11.5041C4.25025 11.6083 4.39476 11.6668 4.54545 11.6668H20.4545C20.6052 11.6668 20.7498 11.6083 20.8563 11.5041C20.9629 11.3999 21.0227 11.2586 21.0227 11.1112V3.88935C21.0227 3.74202 20.9628 3.60071 20.8563 3.49654C20.7497 3.39236 20.6052 3.33382 20.4545 3.33381H4.54545ZM5.11364 4.44487H19.8864V10.5557H5.11364V4.44487ZM8.18537 5.83371C8.03468 5.84061 7.89296 5.90576 7.7914 6.01483C7.68984 6.1239 7.63675 6.26795 7.64381 6.41529C7.65088 6.56262 7.71751 6.70119 7.82907 6.80049C7.94062 6.89979 8.08794 6.95169 8.23864 6.94478H16.7614C16.8366 6.94577 16.9113 6.93213 16.9811 6.90465C17.051 6.87718 17.1145 6.8364 17.1681 6.78472C17.2216 6.73304 17.2642 6.67145 17.2932 6.60356C17.3222 6.53567 17.3372 6.46283 17.3372 6.38925C17.3372 6.31566 17.3222 6.2428 17.2932 6.17491C17.2642 6.10702 17.2216 6.04546 17.1681 5.99377C17.1145 5.94209 17.051 5.90131 16.9811 5.87384C16.9113 5.84636 16.8366 5.83272 16.7614 5.83371H8.23864C8.22089 5.83289 8.20312 5.83289 8.18537 5.83371ZM8.18537 8.05584C8.11053 8.05896 8.03706 8.07649 7.96918 8.10744C7.90129 8.13838 7.84033 8.18214 7.78978 8.23619C7.73924 8.29023 7.70011 8.35351 7.67464 8.42238C7.64917 8.49125 7.63786 8.56437 7.64137 8.63753C7.64488 8.71068 7.66313 8.78243 7.69507 8.84867C7.72702 8.91491 7.77203 8.97434 7.82753 9.02352C7.88302 9.07271 7.94791 9.1107 8.01846 9.1353C8.08901 9.15991 8.16383 9.17063 8.23864 9.16689H16.7614C16.8367 9.16798 16.9115 9.15442 16.9814 9.12699C17.0513 9.09956 17.1149 9.0588 17.1686 9.00711C17.2222 8.95542 17.2649 8.89381 17.2939 8.82587C17.323 8.75793 17.338 8.68502 17.338 8.61137C17.338 8.53771 17.323 8.4648 17.2939 8.39686C17.2649 8.32892 17.2222 8.26731 17.1686 8.21562C17.1149 8.16393 17.0513 8.12317 16.9814 8.09574C16.9115 8.06831 16.8367 8.05476 16.7614 8.05584H8.23864C8.22089 8.05503 8.20312 8.05503 8.18537 8.05584Z"
        fill="#FBB040" />
</svg>        