<svg width="16" height="16" viewBox="0 0 16 16" fill="none" xmlns="http://www.w3.org/2000/svg">
<path fill-rule="evenodd" clip-rule="evenodd" d="M0 8C0 3.58172 3.58172 0 8 0C12.4182 0 16 3.58172 16 8C16 12.4182 12.4182 16 8 16C3.58172 16 0 12.4182 0 8ZM8.8 4C8.8 3.55818 8.44184 3.2 8 3.2C7.55816 3.2 7.2 3.55818 7.2 4V7.17016C7.2 7.35672 7.19992 7.54696 7.21528 7.71168C7.23288 7.90064 7.27432 8.112 7.38936 8.3268C7.50432 8.54168 7.65712 8.69336 7.80464 8.81288C7.9332 8.91704 8.09144 9.02248 8.24672 9.126L9.95624 10.2657C10.3238 10.5107 10.8206 10.4114 11.0657 10.0438C11.3107 9.67616 11.2114 9.17944 10.8438 8.93432L9.15624 7.80936C8.96968 7.68496 8.87536 7.62112 8.81192 7.56976L8.8088 7.5672L8.8084 7.56312C8.8008 7.48184 8.8 7.36792 8.8 7.14368V4Z" fill="#FBB040"/>
</svg>
