<svg width="28" height="29" viewBox="0 0 28 29" fill="none" xmlns="http://www.w3.org/2000/svg">
    <path fill-rule="evenodd" clip-rule="evenodd"
        d="M16.5 13.2999V17.5563C16.5 18.937 15.3807 20.0563 14 20.0563C12.6193 20.0563 11.5 18.937 11.5 17.5563V13.2999C9.42343 14.0044 7.74079 15.5621 6.86963 17.5556C6.51138 18.3753 6.33226 18.7852 6.08282 18.9484C5.83339 19.1116 5.46992 19.1116 4.743 19.1116H4.66667C2.08934 19.1116 0 21.201 0 23.7783C0 26.3556 2.08934 28.445 4.66667 28.445H14H24C26.2091 28.445 28 26.6541 28 24.445V23.1116C28 20.9025 26.2091 19.1116 24 19.1116H23.257C22.5301 19.1116 22.1666 19.1116 21.9172 18.9484C21.6677 18.7852 21.4886 18.3753 21.1304 17.5556C20.2592 15.5621 18.5766 14.0044 16.5 13.2999Z"
        fill="#EAE9EA" />
    <path
        d="M14.0001 2L13.2929 1.29289L14.0001 0.585786L14.7072 1.29289L14.0001 2ZM15.0001 17.5556C15.0001 18.1078 14.5523 18.5556 14.0001 18.5556C13.4478 18.5556 13.0001 18.1078 13.0001 17.5556L15.0001 17.5556ZM7.07073 7.51512L13.2929 1.29289L14.7072 2.70711L8.48494 8.92933L7.07073 7.51512ZM14.7072 1.29289L20.9294 7.51512L19.5152 8.92933L13.2929 2.70711L14.7072 1.29289ZM15.0001 2L15.0001 17.5556L13.0001 17.5556L13.0001 2L15.0001 2Z"
        fill="#EAE9EA" />
</svg>