<svg width="16" height="22" viewBox="0 0 16 22" fill="none" xmlns="http://www.w3.org/2000/svg">
<path d="M7.81503 9.87C7.71503 9.86 7.59503 9.86 7.48503 9.87C5.10503 9.79 3.21503 7.84 3.21503 5.44C3.21503 2.99 5.19503 1 7.65503 1C10.105 1 12.095 2.99 12.095 5.44C12.085 7.84 10.195 9.79 7.81503 9.87Z" stroke="#FBB040" stroke-width="1.5" stroke-linecap="round" stroke-linejoin="round"/>
<path d="M2.815 13.56C0.395 15.18 0.395 17.82 2.815 19.43C5.565 21.27 10.075 21.27 12.825 19.43C15.245 17.81 15.245 15.17 12.825 13.56C10.085 11.73 5.575 11.73 2.815 13.56Z" stroke="#FBB040" stroke-width="1.5" stroke-linecap="round" stroke-linejoin="round"/>
</svg>
