<svg width="14" height="20" viewBox="0 0 14 20" fill="none" xmlns="http://www.w3.org/2000/svg">
<path d="M6.66667 0C2.99333 0 0 2.99333 0 6.66667C0 6.8 0.00666665 6.92667 0.0133333 7.06C0.02 7.18667 0.0266668 7.30667 0.0466668 7.43333C0.0533334 7.51333 0.0666666 7.6 0.0799999 7.68C0.0866666 7.75333 0.1 7.82667 0.113333 7.9C0.133333 8 0.153333 8.1 0.18 8.19333C0.52 9.64667 1.34 10.92 2.46 11.8333C2.46667 11.84 2.47333 11.8467 2.48 11.8533C2.48667 11.86 2.49333 11.8667 2.5 11.8667V11.8733C2.56 11.9133 2.62 11.96 2.68 12.0067C2.76667 12.0733 2.85333 12.1333 2.94 12.1933C3.02667 12.2533 3.12 12.3133 3.21333 12.3667C3.28667 12.4133 3.36667 12.46 3.44667 12.5C3.55333 12.56 3.66667 12.62 3.78 12.6733C3.78 12.6799 3.78 12.6799 3.78667 12.6733C3.91333 12.74 4.04 12.7933 4.16667 12.8466C4.26 12.8866 4.36 12.9199 4.46 12.9533C4.57333 12.9999 4.68667 13.0333 4.80667 13.0666C4.92667 13.1066 5.04667 13.1333 5.16667 13.1599C5.24 13.1799 5.32 13.1999 5.4 13.2133C5.58667 13.2466 5.78 13.2799 5.98 13.2999C6.08 13.3065 6.18 13.3133 6.28 13.3199C6.40667 13.3267 6.54 13.3333 6.66667 13.3333C6.79333 13.3333 6.92667 13.3267 7.05333 13.32C7.15333 13.3133 7.25333 13.3067 7.35333 13.3C7.55333 13.28 7.74667 13.2467 7.93333 13.2133C8.01333 13.2 8.09333 13.18 8.16667 13.16C8.28667 13.1333 8.40667 13.1067 8.52667 13.0667C8.64667 13.0333 8.76 13 8.87333 12.9533C8.97333 12.92 9.07333 12.8867 9.16667 12.8467C9.29333 12.7933 9.42 12.74 9.54667 12.6734C9.55333 12.68 9.55333 12.68 9.55333 12.6734C9.66667 12.6201 9.78 12.5601 9.88667 12.5001C9.96667 12.4601 10.0467 12.4134 10.12 12.3667C10.2133 12.3134 10.3067 12.2534 10.3933 12.1934C10.4799 12.1334 10.5666 12.0734 10.6533 12.0067C10.7133 11.9601 10.7733 11.9134 10.8333 11.8734V11.8667C10.84 11.8667 10.8467 11.86 10.8533 11.8533C10.8599 11.8467 10.8667 11.84 10.8733 11.8333C11.9933 10.92 12.8133 9.64667 13.1533 8.19333C13.18 8.1 13.2 8 13.22 7.9C13.2333 7.82667 13.2467 7.75333 13.2533 7.68C13.2667 7.6 13.28 7.51333 13.2867 7.43333C13.3067 7.30667 13.3133 7.18667 13.32 7.06C13.3267 6.92667 13.3333 6.8 13.3333 6.66667C13.3333 2.99333 10.34 0 6.66667 0ZM6.66667 10.6667C4.46 10.6667 2.66667 8.87333 2.66667 6.66667C2.66667 4.46 4.46 2.66667 6.66667 2.66667C8.87333 2.66667 10.6667 4.46 10.6667 6.66667C10.6667 8.87333 8.87333 10.6667 6.66667 10.6667Z" fill="#FBB040"/>
<path d="M6.66667 9.33333C8.13943 9.33333 9.33333 8.13943 9.33333 6.66667C9.33333 5.19391 8.13943 4 6.66667 4C5.19391 4 4 5.19391 4 6.66667C4 8.13943 5.19391 9.33333 6.66667 9.33333Z" fill="#FBB040"/>
<path d="M9.64008 14.0933C8.72008 14.4667 7.72008 14.6667 6.66675 14.6667C5.61342 14.6667 4.61342 14.4667 3.69342 14.0933C3.24008 13.9133 2.80675 13.6933 2.40008 13.4267L2.00008 19.2867C1.98675 19.5267 2.10008 19.7533 2.30008 19.8867C2.49342 20.02 2.75342 20.0333 2.96675 19.9267L6.66675 18.08L10.3667 19.9267C10.4601 19.9733 10.5667 20 10.6667 20C10.7934 20 10.9267 19.96 11.0334 19.8867C11.2334 19.7533 11.3467 19.5267 11.3334 19.2867L10.9334 13.4267C10.5267 13.6933 10.0934 13.9133 9.64008 14.0933Z" fill="#FBB040"/>
</svg>
