<svg width="154" height="127" viewBox="0 0 154 127" fill="none" xmlns="http://www.w3.org/2000/svg">
<g filter="url(#filter0_d_42_35809)">
<path d="M30.6048 86.4682C31.2196 86.9733 31.8928 87.4029 32.61 87.7476C36.7493 89.955 41.003 91.9603 44.831 94.7118C45.1653 94.9524 45.3427 94.9055 45.5636 94.5728C46.2801 93.4793 46.9838 92.3748 47.7574 91.3223C48.6454 89.9926 50.0086 89.0533 51.5673 88.6972C53.1261 88.3411 54.762 88.5953 56.1392 89.4074C57.3254 90.1244 58.2634 91.1877 58.8269 92.4541C59.8137 94.3672 60.4082 96.2659 59.8786 98.4127C59.6508 99.3331 59.4196 100.256 59.267 101.191C59.0691 102.408 59.2764 102.836 60.4389 103.261C62.8501 104.2 65.1977 105.295 67.4671 106.538C69.6967 107.709 72.114 108.481 74.6097 108.819C75.0362 108.875 75.2545 108.854 75.3338 108.35C76.1078 103.559 77.5611 98.904 79.6497 94.5242C82.3953 88.6841 85.5222 83.0624 89.8039 78.1776C90.2773 77.6377 90.7593 77.1071 91.2352 76.5706C90.8835 76.328 90.5447 76.0672 90.2202 75.7894C90.146 75.7254 90.0812 75.6495 90.0095 75.5829C89.1852 76.1377 88.3061 76.6062 87.3859 76.9809C86.7888 77.7887 86.1858 78.5955 85.5947 79.4075C82.2358 84.0134 78.3711 88.29 76.272 93.7369C75.7381 95.1221 75.0088 95.2884 73.5187 94.682C71.7698 94.0048 70.1271 93.0802 68.6408 91.9364C65.6315 89.4655 62.3231 87.3833 58.7936 85.7389C56.8071 84.8467 54.8547 83.8752 52.8443 83.0334C48.421 81.1797 43.9945 79.3316 39.5649 77.4893L36.6913 77.7323C36.6146 77.7386 36.5381 77.7417 36.4619 77.7417C35.9541 77.7416 35.4563 77.5998 35.0247 77.3323C34.0965 77.6078 33.133 77.7458 32.1648 77.7417C31.9482 77.7417 31.7332 77.7281 31.5191 77.7119C30.8299 79.275 30.1894 80.8598 29.5975 82.4662C29.2733 83.1462 29.1965 83.918 29.3804 84.6486C29.5643 85.3791 29.9973 86.0226 30.6048 86.4682Z" fill="#FBB040"/>
<path d="M121.821 43.7995C120.168 41.1989 117.877 39.1629 115.812 36.9239C115.564 36.6553 115.327 36.738 115.051 36.848C112.715 37.7761 110.299 38.4898 107.834 38.9804C107.268 39.0938 106.693 39.1655 106.054 39.267C106.12 39.375 106.192 39.4795 106.27 39.58C107.815 41.3251 109.362 43.0688 110.911 44.8111C111.373 45.2927 111.79 45.8145 112.158 46.3703C112.49 46.8045 112.654 47.3442 112.618 47.8897C112.583 48.4351 112.351 48.9492 111.966 49.3368C111.59 49.7906 111.192 50.2273 110.784 50.6512C110.221 51.2354 109.627 51.7864 109.024 52.3255C109.975 52.9472 110.861 53.6639 111.668 54.4647C111.789 54.5841 111.898 54.7146 111.994 54.8545C112.094 54.753 112.187 54.6463 112.29 54.5474C112.886 53.9723 113.522 53.4398 114.193 52.9541C116.591 50.6984 119.018 48.4711 121.474 46.2722C122.717 45.1693 122.698 45.1804 121.821 43.7995Z" fill="#FBB040"/>
<path d="M42.9287 57.2984C42.9338 57.2694 42.944 57.2421 42.9508 57.2131L42.8596 57.3564C42.8835 57.3376 42.9039 57.3155 42.9287 57.2984Z" fill="#FBB040"/>
<path d="M74.9344 31.8985C78.0178 29.5665 81.2531 27.4333 84.1658 24.8762C85.4307 23.6745 86.8624 22.6618 88.4168 21.8696C88.8135 21.6241 89.2833 21.5242 89.7456 21.5873C90.2078 21.6503 90.6337 21.8722 90.9501 22.215C91.5011 22.7865 92.0939 23.3179 92.6261 23.9064C94.7585 26.2657 96.4994 28.943 98.6394 31.298C99.3789 32.1117 100.109 32.9331 100.984 33.9071C100.928 33.3954 100.923 33.1122 100.863 32.8418C100.381 30.5324 99.7836 28.2487 99.0718 25.9995C97.3324 20.1979 94.1275 14.9424 89.7662 10.7396C89.7115 10.6677 89.6431 10.6074 89.5649 10.5622C89.4867 10.517 89.4003 10.4877 89.3108 10.4761C89.2212 10.4645 89.1302 10.4709 89.0431 10.4947C88.956 10.5186 88.8744 10.5595 88.8032 10.6151C87.3848 11.346 86.1813 12.4062 84.8089 13.2054C79.658 16.201 75.3046 20.2354 70.7994 24.0557C67.8652 26.6959 65.0858 29.503 62.4747 32.4631C58.4659 36.7508 54.2754 40.903 50.8192 45.6555C49.3363 47.6935 47.8894 49.7548 46.4786 51.8394C46.9387 51.5487 47.4257 51.3031 47.9329 51.1058C49.15 50.6609 50.4387 50.444 51.7344 50.4661C52.1754 50.4632 52.6156 50.5009 53.0497 50.5787C53.2501 50.6162 53.4599 50.6487 53.68 50.6785C53.9574 50.7167 54.2273 50.7975 54.4801 50.9182C55.269 49.9706 56.0657 49.0289 56.8871 48.1035C62.3492 42.1153 68.3949 36.6868 74.9344 31.8985Z" fill="#FBB040"/>
<path d="M70.0027 89.9776C71.1603 90.9592 72.4756 91.7378 73.893 92.2805C74 92.3459 74.1203 92.3869 74.245 92.4006C74.3697 92.4142 74.4959 92.4002 74.6146 92.3595C74.7333 92.3187 74.8416 92.2523 74.9317 92.165C75.0217 92.0776 75.0914 91.9714 75.1357 91.854C77.6093 87.69 80.2867 83.6573 83.0681 79.6954C83.5261 79.0437 84.0063 78.4159 84.4737 77.766C83.5331 77.9141 82.5823 77.988 81.63 77.9869C80.127 77.9994 78.6365 77.7142 77.2442 77.1476C76.4126 76.8005 75.6256 76.3546 74.9003 75.8196C74.712 76.2874 74.3977 76.6939 73.9924 76.994C73.5871 77.294 73.1066 77.4759 72.6042 77.5195L66.9663 78.0031C66.8887 78.01 66.8102 78.0134 66.7334 78.0134C66.5426 77.6822 66.2776 77.3997 65.9593 77.1881C65.641 76.9766 65.278 76.8416 64.8987 76.794C64.5195 76.7463 64.1344 76.7871 63.7736 76.9133C63.4128 77.0395 63.0861 77.2476 62.8193 77.5212L56.8061 78.0048C56.7327 78.0108 56.6602 78.0134 56.5868 78.0134C56.4905 77.4598 56.2156 76.9529 55.8041 76.5703C55.3925 76.1877 54.867 75.9503 54.3079 75.8945C53.7487 75.8387 53.1867 75.9675 52.7076 76.2613C52.2286 76.555 51.859 76.9976 51.6552 77.5212L46.72 77.9178C52.8064 80.3563 58.7412 83.1569 64.4927 86.3048C66.4296 87.3717 68.2728 88.6003 70.0027 89.9776Z" fill="#ED1C24"/>
<path d="M109.89 48.2692C109.769 48.1199 109.648 47.9638 109.52 47.8137C106.226 43.9405 102.943 40.0571 99.6338 36.1975C96.6314 32.6965 93.6111 29.2111 90.573 25.7413C89.2219 24.206 88.9379 24.1975 87.1945 25.262C85.2208 26.4672 83.508 28.0366 81.5864 29.3109C74.2511 34.1726 67.7509 40.0673 61.4818 46.1684C59.4816 48.1148 57.5983 50.1618 55.802 52.2806C55.9016 52.4977 55.9719 52.7272 56.011 52.9629L56.0451 53.183C56.0801 53.1446 56.1082 53.1019 56.144 53.0653C56.9665 52.1971 57.9765 51.5284 59.0969 51.1103C60.3141 50.6653 61.6028 50.4485 62.8985 50.4706C63.3392 50.4674 63.7792 50.5048 64.2129 50.5823C64.4142 50.6199 64.6231 50.6531 64.8431 50.6821C65.2053 50.7327 65.5535 50.856 65.8667 51.0446C66.0198 51.0029 66.1762 50.9743 66.3341 50.9593L72.3994 50.4766C72.471 50.4706 72.5435 50.4681 72.6152 50.4681C72.9759 50.468 73.3331 50.5395 73.6661 50.6784C73.999 50.8173 74.3011 51.0208 74.5549 51.2771C74.8087 51.5335 75.0092 51.8376 75.1448 52.1719C75.2803 52.5062 75.3482 52.864 75.3446 53.2248L75.2926 57.9364C75.919 57.5093 76.5906 57.1526 77.2952 56.8728C78.6106 56.359 80.0114 56.0985 81.4235 56.1051C83.6361 56.0643 85.8065 56.713 87.6338 57.9611C87.8044 58.078 87.9493 58.217 88.1105 58.3433C88.1779 58.2238 88.2385 58.1019 88.3093 57.9842C89.1032 56.671 90.0716 55.4716 91.188 54.4189C92.3083 53.3654 93.5617 52.463 94.9162 51.7347C96.3031 50.9877 97.7906 50.4447 99.3327 50.1226C99.4559 50.0969 99.5807 50.0798 99.7062 50.0714C99.783 50.0638 99.9204 50.0458 100.117 50.0211C100.475 49.9783 100.835 49.9583 101.195 49.9614C101.469 49.9614 101.779 49.9699 102.124 49.9887C103.071 50.0509 104.009 50.2121 104.923 50.4698C105.652 50.6756 106.364 50.9409 107.05 51.263C107.875 50.4425 108.695 49.6168 109.529 48.8057C109.675 48.6573 109.899 48.5489 109.89 48.2692Z" fill="#ED1C24"/>
<path d="M126.711 44.1905C126.226 42.8361 125.514 41.5738 124.607 40.4572C121.944 37.0042 118.99 33.7851 115.778 30.8351C114.531 29.6479 113.824 29.6027 112.382 30.6057C111.184 31.4079 109.812 31.915 108.38 32.0856C106.831 32.3099 106.259 31.9064 105.961 30.3618C105.473 27.8712 105.914 25.2881 107.201 23.1007C108.004 21.6686 107.851 21.0536 106.689 19.8987C105.384 18.5938 104.08 17.2853 102.742 16.0145C99.9726 13.3823 97.5127 10.4388 94.6136 7.93882C93.5269 7.00059 92.4394 6.06236 90.8964 6.00009L88.4903 6.5255C87.2271 7.1925 85.9102 7.75033 84.6956 8.51627C81.8945 10.2827 79.4525 12.5456 76.6336 14.2873C76.0307 14.6769 75.4576 15.1108 74.9192 15.5854C69.7197 20.0789 64.7655 24.8486 60.078 29.8739C53.4046 36.8876 48.0635 44.9462 42.2414 52.6227C41.2784 53.8927 40.387 55.2139 39.5349 56.5598C40.3096 56.8367 41.041 57.2221 41.7074 57.7045C41.8686 57.823 42.0161 57.9561 42.1671 58.0849C42.3502 57.8015 42.5845 57.5548 42.858 57.3573L42.9493 57.214C43.0212 56.8395 43.1141 56.4694 43.2273 56.1052C43.5762 54.9734 44.1746 53.9343 44.9784 53.0645C45.4228 52.594 45.9266 52.1834 46.477 51.8431C47.89 49.7602 49.337 47.6989 50.8177 45.6593C54.2746 40.9067 58.4617 36.7546 62.4731 32.4668C65.0841 29.5067 67.8636 26.6996 70.7978 24.0594C75.303 20.2391 79.6564 16.2055 84.8073 13.2091C86.1788 12.4108 87.3832 11.3497 88.8008 10.6188C88.872 10.5632 88.9535 10.5223 89.0406 10.4984C89.1277 10.4746 89.2187 10.4682 89.3082 10.4798C89.3978 10.4914 89.4842 10.5207 89.5624 10.5659C89.6406 10.6111 89.709 10.6714 89.7637 10.7433C94.1248 14.9461 97.3294 20.2017 99.0685 26.0032C99.7806 28.2523 100.378 30.536 100.86 32.8455C100.918 33.1159 100.924 33.3974 100.981 33.9109C100.106 32.9368 99.3764 32.1154 98.6369 31.3017C96.4968 28.9476 94.7551 26.2694 92.6236 23.9101C92.0923 23.3216 91.4986 22.7902 90.9485 22.2187C90.632 21.876 90.2062 21.654 89.7439 21.591C89.2817 21.5279 88.8119 21.6278 88.4152 21.8733C86.8605 22.6656 85.4285 23.6782 84.1633 24.8799C81.2505 27.4387 78.0153 29.5711 74.932 31.9022C68.3924 36.6908 62.3467 42.1196 56.8846 48.108C56.0632 49.0352 55.264 49.9768 54.4776 50.9227C55.0683 51.2038 55.538 51.6883 55.8005 52.2874C57.5968 50.1687 59.4801 48.1217 61.4802 46.1753C67.7502 40.075 74.2496 34.1821 81.5849 29.3186C83.5066 28.0443 85.2193 26.4749 87.193 25.2697C88.9364 24.2052 89.2196 24.2121 90.5706 25.7491C93.6151 29.2131 96.6353 32.6985 99.6314 36.2053C102.941 40.0648 106.224 43.9474 109.518 47.8214C109.645 47.9716 109.767 48.1268 109.887 48.2769C109.897 48.5567 109.671 48.665 109.52 48.8126C108.686 49.6246 107.866 50.4494 107.042 51.2699C107.42 51.4405 107.802 51.6298 108.191 51.8431C108.469 51.994 108.744 52.1612 109.02 52.3386C109.623 51.7996 110.214 51.2486 110.779 50.6643C111.188 50.2378 111.586 49.8028 111.962 49.3499C112.347 48.9624 112.579 48.4483 112.614 47.9028C112.65 47.3574 112.486 46.8175 112.154 46.3834C111.786 45.8275 111.369 45.3057 110.907 44.8242C109.357 43.0831 107.81 41.3394 106.266 39.5931C106.188 39.4926 106.116 39.3881 106.05 39.2801C106.689 39.1786 107.264 39.1095 107.83 38.9935C110.295 38.503 112.711 37.7892 115.047 36.8612C115.322 36.7511 115.558 36.6676 115.808 36.9371C117.872 39.1752 120.163 41.212 121.816 43.8126C122.693 45.1935 122.712 45.1825 121.474 46.2862C119.015 48.4816 116.588 50.7089 114.193 52.9681C115.998 51.6449 118.038 50.6754 120.203 50.1107C121.207 49.8536 122.238 49.7142 123.274 49.6954C124.453 48.663 125.507 47.4959 126.414 46.2179C126.628 45.9313 126.767 45.5959 126.819 45.2419C126.871 44.8879 126.834 44.5266 126.711 44.1905Z" fill="#F7F7F7"/>
<path d="M43.2351 76.8969C42.8849 77.1079 42.4915 77.2368 42.0844 77.2739L39.5649 77.4871C43.9956 79.3243 48.4218 81.1724 52.8434 83.0312C54.8538 83.8739 56.8062 84.8446 58.7927 85.7376C62.3225 87.3818 65.6312 89.464 68.6407 91.935C70.1271 93.0788 71.7698 94.0034 73.5187 94.6806C75.0088 95.2871 75.7363 95.1208 76.272 93.7356C78.3711 88.293 82.2358 84.0121 85.5947 79.4062C86.1874 78.5934 86.7887 77.7856 87.3858 76.9787C87.0506 77.1126 86.7128 77.2346 86.3725 77.3378C85.7507 77.5221 85.1169 77.6632 84.4756 77.76C84.0116 78.4057 83.528 79.0394 83.0691 79.6894C80.2834 83.6513 77.6102 87.6848 75.1367 91.848C75.0924 91.9654 75.0227 92.0716 74.9326 92.159C74.8426 92.2463 74.7343 92.3128 74.6157 92.3535C74.497 92.3942 74.3707 92.4083 74.246 92.3946C74.1212 92.381 74.0011 92.34 73.894 92.2745C72.4766 91.7319 71.1612 90.9533 70.0037 89.9716C68.2752 88.5937 66.4335 87.3642 64.498 86.2963C58.7465 83.1484 52.8116 80.3478 46.7253 77.9093L45.6463 77.9946C45.573 78.0006 45.4996 78.0031 45.4271 78.0031C44.9998 78.007 44.5779 77.9082 44.1966 77.7153C43.8153 77.5224 43.4859 77.2408 43.2359 76.8943L43.2351 76.8969Z" fill="#F7F7F7"/>
<path d="M91.2375 76.5715C90.7607 77.108 90.2788 77.6385 89.8062 78.1784C85.5245 83.0632 82.3976 88.6841 79.652 94.525C77.5633 98.9048 76.11 103.56 75.3361 108.35C75.2568 108.855 75.0342 108.876 74.612 108.819C72.1163 108.482 69.699 107.71 67.4694 106.539C65.1998 105.295 62.8518 104.201 60.4404 103.262C59.277 102.835 59.0705 102.409 59.2684 101.192C59.4202 100.253 59.6522 99.3339 59.8791 98.4136C60.4097 96.2667 59.8143 94.3681 58.8275 92.4549C58.2641 91.1885 57.3261 90.1252 56.1399 89.4082C54.7626 88.5961 53.1267 88.342 51.568 88.6981C50.0092 89.0542 48.646 89.9934 47.758 91.3231C46.9844 92.3765 46.2807 93.481 45.5642 94.5745C45.3467 94.9071 45.165 94.9532 44.8315 94.7127C41.0035 91.9611 36.75 89.9558 32.6107 87.7484C31.8935 87.4036 31.2202 86.9741 30.6054 86.469C29.9976 86.0235 29.5643 85.3799 29.3804 84.6491C29.1965 83.9183 29.2735 83.1462 29.598 82.4662C30.1905 80.8609 30.8311 79.2762 31.5197 77.7119C30.6922 77.6512 29.8789 77.4637 29.1085 77.1557C28.8634 77.0568 28.6251 76.9468 28.3937 76.8257C28.0747 77.531 27.7642 78.2398 27.4699 78.958C26.6006 80.7601 25.9115 82.6438 25.4127 84.5815C25.2716 85.116 25.2827 85.6793 25.4445 86.208C25.6064 86.7366 25.9126 87.2096 26.3287 87.5736C27.7716 88.9629 29.389 90.1588 31.1402 91.1312C34.5923 92.833 37.8937 94.825 41.0087 97.0856C41.385 97.3535 41.7823 97.5905 42.1968 97.7943C45.2734 99.4525 47.2915 98.9535 49.2165 96.0654C49.7449 95.1851 50.3505 94.3536 51.0264 93.5808C51.3415 93.2417 51.738 92.9885 52.1782 92.8454C52.6185 92.7022 53.0879 92.6737 53.5423 92.7626C53.9966 92.8515 54.4207 93.0548 54.7745 93.3534C55.1283 93.652 55.4001 94.0358 55.5641 94.4687C55.8945 95.4977 55.9946 96.5867 55.8575 97.6587C55.7534 99.6785 55.3057 101.668 55.4166 103.709C55.4119 104.184 55.5475 104.65 55.8063 105.048C56.0651 105.447 56.4357 105.76 56.8717 105.949C59.4262 107.207 61.9833 108.455 64.6001 109.579C67.4575 110.916 70.4255 112.003 73.4707 112.828C75.6884 113.353 76.9174 112.699 77.7764 110.577C78.1208 109.721 78.4183 108.847 78.6677 107.958C79.6556 104.104 81.0568 100.368 82.8471 96.8143C86.404 90.3038 90.5326 84.1225 95.1841 78.3431C94.7539 78.2409 94.3294 78.1161 93.9123 77.9694C92.963 77.6233 92.0636 77.1532 91.2375 76.5715Z" fill="#F7F7F7"/>
<path d="M27.2814 71.7678C27.5484 72.4191 27.9401 73.0119 28.4346 73.5129C28.9179 73.9948 29.4938 74.3737 30.1276 74.6269C30.7754 74.8869 31.4674 75.0189 32.1654 75.0158C32.9837 75.0228 33.7969 74.8863 34.5681 74.6124C35.3146 74.3423 35.9577 73.845 36.407 73.1905H36.4616V75.0158L41.8547 74.5595L42.1516 64.4095C42.1978 63.4755 42.0132 62.5446 41.6142 61.6988C41.2574 60.9887 40.7381 60.3727 40.0985 59.9009C39.433 59.4221 38.6793 59.0798 37.8809 58.8935C37.0372 58.6877 36.1718 58.5841 35.3033 58.5848C34.3535 58.5843 33.4042 58.6338 32.4596 58.7332C31.5511 58.8272 30.6528 59.0022 29.7754 59.256L28.7289 63.5207C29.426 63.3064 30.1149 63.1184 30.7955 62.9569C31.5169 62.7916 32.2551 62.7106 32.9952 62.7156C33.7152 62.6871 34.432 62.8249 35.0901 63.1181C35.3703 63.2816 35.5961 63.5241 35.7392 63.8152C35.8822 64.1064 35.9362 64.4332 35.8944 64.7549V65.5601C35.4523 65.2281 34.9699 64.9533 34.4589 64.7422C33.7973 64.4823 33.0899 64.3589 32.3794 64.3796C31.6321 64.3724 30.8899 64.5043 30.1908 64.7686C29.5466 65.0123 28.9549 65.3768 28.4474 65.8424C27.9555 66.2972 27.5583 66.8448 27.2789 67.4536C26.9899 68.0894 26.8443 68.781 26.8524 69.4794C26.8512 69.8886 26.8889 70.297 26.965 70.6991L22.0759 67.4937C23.2796 66.7502 24.347 65.806 25.2318 64.7021C26.0359 63.7103 26.6666 62.5896 27.0972 61.3875C27.4805 60.3227 27.6402 59.1904 27.5663 58.0611C27.5065 57.0386 27.1623 56.0531 26.5726 55.2157C25.9276 54.3538 25.0398 53.7042 24.0232 53.3503C22.6717 52.8978 21.2328 52.769 19.8225 52.9741C16.6728 53.2789 13.3987 53.6281 10 54.0216L10.4265 74.9834L16.9224 75.6555L17.0078 71.065L23.5293 75.8696L27.2464 71.6672C27.2592 71.7021 27.272 71.7363 27.2814 71.7678ZM31.5461 68.8559C31.9776 68.5082 32.4986 68.2894 33.049 68.2247C33.6287 68.0781 34.2414 68.1384 34.7813 68.3953C34.9532 68.4803 35.1037 68.6029 35.2218 68.7539C35.3399 68.9049 35.4226 69.0806 35.4637 69.2679C35.4952 69.4701 35.4748 69.6771 35.4045 69.8694C35.3343 70.0616 35.2164 70.233 35.0619 70.3673C34.6268 70.75 34.0815 70.985 33.5045 71.0386C32.9338 71.1589 32.3402 71.1076 31.7986 70.891C31.6026 70.8144 31.4292 70.6892 31.2949 70.5272C31.1606 70.3651 31.0698 70.1716 31.0309 69.9647C31.0114 69.75 31.0491 69.534 31.1402 69.3386C31.2312 69.1432 31.3725 68.9755 31.5495 68.8525L31.5461 68.8559ZM20.2464 61.327C20.1773 61.5607 20.0729 61.7825 19.9367 61.9846C19.7303 62.3069 19.4819 62.6003 19.1981 62.8571C18.3927 63.6015 17.3995 64.112 16.3254 64.3336L16.5941 60.039C17.2401 59.7515 17.9297 59.5742 18.6343 59.5145C19.0217 59.4787 19.4107 59.5633 19.7483 59.7567C19.9732 59.9031 20.1358 60.1277 20.2046 60.387C20.2634 60.5963 20.2862 60.8141 20.2719 61.031C20.2571 61.2107 20.2498 61.3094 20.2498 61.327H20.2464Z" fill="#F7F7F7"/>
<path d="M53.1009 57.8367H54.0144L53.3167 53.3818C53.048 53.346 52.7921 53.305 52.5491 53.2607C52.2787 53.2138 52.0046 53.1915 51.7302 53.1941C50.7702 53.1717 49.8143 53.3264 48.9104 53.6505C48.1739 53.9138 47.5103 54.3478 46.9738 54.917C46.4372 55.4861 46.0431 56.1742 45.8236 56.9249C45.5644 57.777 45.4378 58.6639 45.4483 59.5545H44.4615L43.6008 64.1706H45.4534L45.427 75.2836L51.4402 74.8L51.279 64.1715H53.5879V59.5554H51.279C51.2657 59.324 51.3006 59.0924 51.3815 58.8752C51.4624 58.6581 51.5875 58.4601 51.749 58.2939C52.1212 57.9684 52.6075 57.804 53.1009 57.8367Z" fill="#F7F7F7"/>
<path d="M64.266 57.8367H65.1794L64.4817 53.3818C64.2139 53.346 63.9572 53.305 63.7141 53.2607C63.4434 53.2137 63.1691 53.1914 62.8945 53.1941C61.9345 53.1717 60.9785 53.3264 60.0746 53.6505C59.338 53.9137 58.6742 54.3476 58.1377 54.9167C57.6012 55.4859 57.2071 56.1741 56.9878 56.9249C56.7286 57.777 56.6021 58.6639 56.6126 59.5545H55.6205L54.76 64.1706H56.6126L56.5861 75.2836L62.6002 74.8L62.4381 64.1715H64.747V59.5554H62.4381C62.4247 59.324 62.4597 59.0924 62.5406 58.8752C62.6215 58.6581 62.7466 58.4601 62.9081 58.2939C63.0932 58.132 63.3084 58.0082 63.5415 57.9298C63.7745 57.8513 64.0207 57.8197 64.266 57.8367Z" fill="#F7F7F7"/>
<path d="M72.6127 53.1939L66.5474 53.6767L66.735 75.2842L72.3721 74.8006L72.6127 53.1939Z" fill="#F7F7F7"/>
<path d="M88.9943 63.8086C88.3862 62.3507 87.3727 61.0979 86.0739 60.1989C84.7023 59.2706 83.0751 58.7935 81.4194 58.8342C80.3497 58.8266 79.2883 59.0222 78.2916 59.4108C77.3298 59.7865 76.4564 60.3578 75.7269 61.0886C74.9709 61.8566 74.3781 62.7696 73.9842 63.7728C73.5378 64.9185 73.3188 66.1402 73.3394 67.3696C73.334 68.4164 73.5436 69.453 73.9553 70.4155C74.3569 71.3576 74.9414 72.2108 75.6748 72.9256C76.4299 73.6564 77.3183 74.2355 78.2916 74.6315C79.3528 75.0611 80.4887 75.2757 81.6334 75.2627C82.9671 75.2834 84.2964 75.1066 85.5783 74.7381C86.7834 74.3589 87.9173 73.7824 88.9338 73.0323L86.2777 68.6567C85.8082 69.072 85.2894 69.428 84.733 69.7169C84.0861 70.0312 83.3724 70.1834 82.6536 70.1604C82.3571 70.1588 82.061 70.1409 81.7665 70.1067C81.4962 70.0851 81.2324 70.0122 80.9895 69.8918L88.9815 63.8768C88.9849 63.8512 88.9909 63.8316 88.9943 63.8086ZM79.1906 67.2579C79.1235 67.1235 79.0666 66.9844 79.0201 66.8416C78.9642 66.6187 78.9413 66.3888 78.9519 66.1593C78.9536 65.4788 79.1904 64.8198 79.6222 64.2939C79.8338 64.0387 80.095 63.8289 80.3898 63.6772C80.6937 63.5234 81.0302 63.4449 81.3707 63.4486C81.7133 63.443 82.0542 63.4973 82.3781 63.609C82.7011 63.738 82.9837 63.9509 83.1969 64.2257L79.1906 67.2579Z" fill="#F7F7F7"/>
<path d="M130.966 68.583C131.603 67.1943 132.015 65.713 132.187 64.1946C132.34 62.7933 132.277 61.3768 131.999 59.9947C131.751 58.7309 131.331 57.5071 130.75 56.3578C130.394 55.7193 129.937 55.1431 129.395 54.6519C128.749 54.0574 128.009 53.5723 127.207 53.2156C126.292 52.8064 125.318 52.5472 124.321 52.4479C123.173 52.3386 122.015 52.4339 120.9 52.7294C119.629 53.062 118.406 53.5583 117.263 54.2059C116.146 54.836 115.114 55.6071 114.193 56.5003C113.285 57.3794 112.499 58.3766 111.857 59.4651C111.42 60.2086 111.062 60.9959 110.788 61.8141L99.4017 63.2513L98.9753 67.5723L102.787 66.8481C102.567 67.3753 102.232 67.8474 101.809 68.2307C101.376 68.6291 100.882 68.9551 100.345 69.1963C99.8291 69.4325 99.2732 69.5694 98.7065 69.5997C98.1829 69.6329 97.6598 69.5263 97.1909 69.2909C96.7088 69.0333 96.316 68.6357 96.0641 68.1506C95.7417 67.4974 95.5977 66.7706 95.647 66.0438C95.6316 65.1595 95.8301 64.2846 96.2254 63.4935C96.5873 62.7715 97.083 62.1249 97.6864 61.588C98.2667 61.0766 98.9302 60.6681 99.6482 60.3803C100.304 60.1073 101.006 59.9626 101.717 59.9538C102.353 59.9442 102.983 60.0869 103.554 60.37C104.102 60.6508 104.527 61.1236 104.748 61.6981L109.767 56.4098C108.915 55.5519 107.949 54.8156 106.896 54.222C106.048 53.7435 105.147 53.3654 104.211 53.0953C103.484 52.888 102.738 52.7574 101.984 52.7055C101.479 52.6679 100.972 52.6728 100.468 52.72C100.118 52.7644 99.9257 52.7866 99.8905 52.7866C98.6061 53.0541 97.3673 53.5063 96.2126 54.1291C95.0657 54.7434 94.0046 55.5059 93.0567 56.3971C92.1193 57.2801 91.3067 58.2867 90.6412 59.3892C89.9762 60.4841 89.4826 61.6744 89.1775 62.9186C89.1067 63.2112 89.0479 63.5063 88.9984 63.804C88.9984 63.8253 88.9899 63.8466 88.9864 63.8688C88.833 64.8322 88.7898 65.8101 88.8577 66.7833C88.961 68.1735 89.3156 69.5335 89.9043 70.7972C90.3829 71.915 91.1019 72.9135 92.0102 73.722C92.8424 74.4517 93.8028 75.0206 94.8427 75.3997C95.8771 75.7691 96.9644 75.969 98.0626 75.9916C100.231 76.0496 102.378 75.555 104.303 74.5544C105.167 74.1133 105.96 73.5433 106.653 72.8639C106.688 72.8281 106.871 72.6225 107.201 72.2472C107.648 71.7204 108.065 71.1691 108.45 70.5959C108.986 69.8121 109.465 68.9919 109.886 68.1412C110.029 67.8537 110.146 67.5441 110.271 67.2336C110.434 68.4571 110.779 69.6493 111.294 70.7708C111.771 71.8868 112.485 72.8853 113.387 73.6964C114.216 74.4302 115.177 74.9996 116.218 75.3741C117.253 75.7421 118.342 75.9369 119.441 75.9507C120.538 75.9707 121.633 75.8532 122.701 75.601C123.732 75.3604 124.729 74.991 125.668 74.5015C126.532 74.0603 127.323 73.4903 128.015 72.811C129.24 71.5862 130.239 70.1549 130.966 68.583ZM124.885 63.8458C124.828 64.4095 124.701 64.964 124.509 65.4971C124.261 66.1825 123.933 66.8359 123.531 67.4435C122.916 68.3742 122.017 69.0806 120.967 69.4564C120.473 69.633 119.949 69.7107 119.424 69.685C118.934 69.6681 118.456 69.5209 118.041 69.2585C117.605 68.9601 117.261 68.5468 117.046 68.0644C116.766 67.4037 116.642 66.687 116.685 65.9705C116.674 65.1151 116.834 64.2663 117.156 63.4739C117.44 62.7696 117.844 62.1202 118.351 61.5548C118.807 61.0477 119.354 60.6292 119.963 60.3206C120.504 60.0385 121.097 59.8693 121.705 59.8233C122.257 59.7834 122.81 59.8948 123.303 60.1457C123.813 60.4149 124.216 60.8503 124.445 61.3799C124.614 61.7303 124.74 62.1001 124.82 62.4811C124.911 62.9312 124.933 63.3925 124.885 63.8492V63.8458Z" fill="#FBB040"/>
<path d="M139.45 72.0907C139.148 71.692 138.785 71.3434 138.375 71.0578C137.917 70.7332 137.415 70.4748 136.885 70.2902C136.356 70.1157 135.806 70.0116 135.249 69.9806C134.748 69.9503 134.245 70.0001 133.76 70.1281C133.332 70.2388 132.934 70.4404 132.591 70.7192C132.281 70.9715 132.049 71.3066 131.921 71.6856C131.777 72.0626 131.753 72.4749 131.853 72.866C131.959 73.2936 132.151 73.6952 132.417 74.0465C132.718 74.4456 133.081 74.7948 133.491 75.0811C133.95 75.4052 134.451 75.6636 134.981 75.8488C135.507 76.0395 136.06 76.1477 136.619 76.1695C137.122 76.1919 137.624 76.1343 138.109 75.9989C138.533 75.8799 138.929 75.6788 139.275 75.407C139.587 75.1618 139.82 74.8306 139.945 74.4542C140.071 74.0731 140.09 73.6648 140 73.2737C139.903 72.8447 139.715 72.4414 139.45 72.0907Z" fill="#FBB040"/>
<path d="M133.076 68.9487C133.601 68.7089 134.156 68.5419 134.726 68.4523C136.004 68.258 137.31 68.3685 138.537 68.7747C139.103 68.9643 139.64 69.2306 140.134 69.5662L142.443 50.0527L134.499 50.3751L133.076 68.9487Z" fill="#FBB040"/>
<path d="M138.238 44.8519H137.528V44.4681H139.37V44.8519H138.66V46.7062H138.238V44.8519Z" fill="white"/>
<path d="M141.576 45.0852L140.848 46.0567H140.763L140.049 45.0818V46.7092H139.627V44.4711H140.113L140.814 45.4332L141.514 44.4711H141.997V46.7092H141.574L141.576 45.0852Z" fill="white"/>
<path d="M139.859 42.4102C139.231 42.4106 138.617 42.5972 138.095 42.9466C137.572 43.2959 137.165 43.7923 136.925 44.373C136.685 44.9536 136.622 45.5924 136.745 46.2086C136.868 46.8249 137.171 47.3908 137.615 47.835C138.06 48.2791 138.626 48.5815 139.242 48.7038C139.859 48.8262 140.497 48.763 141.078 48.5224C141.658 48.2817 142.154 47.8744 142.503 47.3518C142.852 46.8292 143.039 46.215 143.038 45.5866C143.038 45.1693 142.956 44.7561 142.796 44.3706C142.636 43.9851 142.402 43.6349 142.107 43.3399C141.812 43.045 141.461 42.811 141.076 42.6515C140.69 42.492 140.277 42.41 139.859 42.4102ZM139.859 48.3441C139.314 48.3438 138.782 48.1819 138.329 47.8788C137.875 47.5758 137.522 47.1453 137.314 46.6416C137.105 46.138 137.051 45.5838 137.157 45.0492C137.264 44.5146 137.526 44.0236 137.912 43.6382C138.297 43.2527 138.788 42.9902 139.323 42.8838C139.857 42.7774 140.412 42.8318 140.915 43.0403C141.419 43.2487 141.849 43.6018 142.153 44.0548C142.456 44.5079 142.617 45.0407 142.618 45.5857C142.618 45.9481 142.547 46.3069 142.409 46.6417C142.27 46.9766 142.067 47.2808 141.811 47.537C141.554 47.7932 141.25 47.9964 140.915 48.1349C140.581 48.2734 140.222 48.3445 139.859 48.3441Z" fill="white"/>
</g>
<defs>
<filter id="filter0_d_42_35809" x="0" y="9.15527e-05" width="153.038" height="127" filterUnits="userSpaceOnUse" color-interpolation-filters="sRGB">
<feFlood flood-opacity="0" result="BackgroundImageFix"/>
<feColorMatrix in="SourceAlpha" type="matrix" values="0 0 0 0 0 0 0 0 0 0 0 0 0 0 0 0 0 0 127 0" result="hardAlpha"/>
<feOffset dy="4"/>
<feGaussianBlur stdDeviation="5"/>
<feComposite in2="hardAlpha" operator="out"/>
<feColorMatrix type="matrix" values="0 0 0 0 0 0 0 0 0 0 0 0 0 0 0 0 0 0 0.53 0"/>
<feBlend mode="normal" in2="BackgroundImageFix" result="effect1_dropShadow_42_35809"/>
<feBlend mode="normal" in="SourceGraphic" in2="effect1_dropShadow_42_35809" result="shape"/>
</filter>
</defs>
</svg>
